<?xml version="1.0" encoding="utf-8"?>
<svg xmlns="http://www.w3.org/2000/svg" viewBox="0 0 1000 666.66669" height="666.66669" width="1000" id="svg2" version="1.1">
  <defs id="defs6">
    <linearGradient id="linearGradient312" spreadMethod="pad" gradientTransform="matrix(140.60449,0,0,-140.60449,565.62457,348.29654)" gradientUnits="userSpaceOnUse" y2="0" x2="1" y1="0" x1="0">
      <stop id="stop292" offset="0" style="stop-opacity:1;stop-color:#f3eaa7"/>
      <stop id="stop294" offset="0.0396" style="stop-opacity:1;stop-color:#f3eaa7"/>
      <stop id="stop296" offset="0.1361" style="stop-opacity:1;stop-color:#bc9728"/>
      <stop id="stop298" offset="0.2351" style="stop-opacity:1;stop-color:#7c671f"/>
      <stop id="stop300" offset="0.3738" style="stop-opacity:1;stop-color:#bc9728"/>
      <stop id="stop302" offset="0.5347" style="stop-opacity:1;stop-color:#f3eaa7"/>
      <stop id="stop304" offset="0.6856" style="stop-opacity:1;stop-color:#7c671f"/>
      <stop id="stop306" offset="0.8342" style="stop-opacity:1;stop-color:#b49127"/>
      <stop id="stop308" offset="0.9802" style="stop-opacity:1;stop-color:#f3eaa7"/>
      <stop id="stop310" offset="1" style="stop-opacity:1;stop-color:#f3eaa7"/>
    </linearGradient>
    <clipPath id="clipPath322" clipPathUnits="userSpaceOnUse">
      <path id="path320" d="M 0,500 H 750 V 0 H 0 Z"/>
    </clipPath>
    <linearGradient id="linearGradient588" spreadMethod="pad" gradientTransform="matrix(-140.605,0,0,140.605,470.57578,130.81854)" gradientUnits="userSpaceOnUse" y2="0" x2="1" y1="0" x1="0">
      <stop id="stop568" offset="0" style="stop-opacity:1;stop-color:#f3eaa7"/>
      <stop id="stop570" offset="0.0396" style="stop-opacity:1;stop-color:#f3eaa7"/>
      <stop id="stop572" offset="0.1361" style="stop-opacity:1;stop-color:#bc9728"/>
      <stop id="stop574" offset="0.2351" style="stop-opacity:1;stop-color:#7c671f"/>
      <stop id="stop576" offset="0.3738" style="stop-opacity:1;stop-color:#bc9728"/>
      <stop id="stop578" offset="0.5347" style="stop-opacity:1;stop-color:#f3eaa7"/>
      <stop id="stop580" offset="0.6856" style="stop-opacity:1;stop-color:#7c671f"/>
      <stop id="stop582" offset="0.8342" style="stop-opacity:1;stop-color:#b49127"/>
      <stop id="stop584" offset="0.9802" style="stop-opacity:1;stop-color:#f3eaa7"/>
      <stop id="stop586" offset="1" style="stop-opacity:1;stop-color:#f3eaa7"/>
    </linearGradient>
    <clipPath id="clipPath598" clipPathUnits="userSpaceOnUse">
      <path id="path596" d="M 0,500 H 750 V 0 H 0 Z"/>
    </clipPath>
    <clipPath id="clip-1" clipPathUnits="userSpaceOnUse">
      <path id="path-1" d="M 0,500 H 750 V 0 H 0 Z"/>
    </clipPath>
    <linearGradient id="gradient-1" spreadMethod="pad" gradientTransform="matrix(-140.605,0,0,140.605,470.57578,130.81854)" gradientUnits="userSpaceOnUse" y2="0" x2="1" y1="0" x1="0">
      <stop id="stop-1" offset="0" style="stop-opacity:1;stop-color:#f3eaa7"/>
      <stop id="stop-2" offset="0.0396" style="stop-opacity:1;stop-color:#f3eaa7"/>
      <stop id="stop-3" offset="0.1361" style="stop-opacity:1;stop-color:#bc9728"/>
      <stop id="stop-4" offset="0.2351" style="stop-opacity:1;stop-color:#7c671f"/>
      <stop id="stop-5" offset="0.3738" style="stop-opacity:1;stop-color:#bc9728"/>
      <stop id="stop-6" offset="0.5347" style="stop-opacity:1;stop-color:#f3eaa7"/>
      <stop id="stop-7" offset="0.6856" style="stop-opacity:1;stop-color:#7c671f"/>
      <stop id="stop-8" offset="0.8342" style="stop-opacity:1;stop-color:#b49127"/>
      <stop id="stop-9" offset="0.9802" style="stop-opacity:1;stop-color:#f3eaa7"/>
      <stop id="stop-10" offset="1" style="stop-opacity:1;stop-color:#f3eaa7"/>
    </linearGradient>
    <linearGradient id="gradient-2" spreadMethod="pad" gradientTransform="matrix(140.60449,0,0,-140.60449,565.62457,348.29654)" gradientUnits="userSpaceOnUse" y2="0" x2="1" y1="0" x1="0">
      <stop id="stop-11" offset="0" style="stop-opacity:1;stop-color:#f3eaa7"/>
      <stop id="stop-12" offset="0.0396" style="stop-opacity:1;stop-color:#f3eaa7"/>
      <stop id="stop-13" offset="0.1361" style="stop-opacity:1;stop-color:#bc9728"/>
      <stop id="stop-14" offset="0.2351" style="stop-opacity:1;stop-color:#7c671f"/>
      <stop id="stop-15" offset="0.3738" style="stop-opacity:1;stop-color:#bc9728"/>
      <stop id="stop-16" offset="0.5347" style="stop-opacity:1;stop-color:#f3eaa7"/>
      <stop id="stop-17" offset="0.6856" style="stop-opacity:1;stop-color:#7c671f"/>
      <stop id="stop-18" offset="0.8342" style="stop-opacity:1;stop-color:#b49127"/>
      <stop id="stop-19" offset="0.9802" style="stop-opacity:1;stop-color:#f3eaa7"/>
      <stop id="stop-20" offset="1" style="stop-opacity:1;stop-color:#f3eaa7"/>
    </linearGradient>
    <clipPath id="clip-2" clipPathUnits="userSpaceOnUse">
      <path id="path-5" d="M 0,500 H 750 V 0 H 0 Z"/>
    </clipPath>
  </defs>
  <g transform="matrix(1, 0, 0, 1, 54.945007, 75.721298)">
    <g transform="matrix(1, 0, 0, 1, -309.677826, -58.352188)">
      <g id="g280" transform="matrix(1.333333, 0, 0, -1.333333, 0, 666.666687)">
        <g id="g282">
          <g id="g288">
            <g id="g290">
              <path id="path314" style="fill:url(#linearGradient312);stroke:none" d="m 565.625,418.599 v -4 H 702.229 V 277.994 h 4 v 140.605 z"/>
            </g>
          </g>
        </g>
      </g>
      <g id="g316" transform="matrix(1.333333, 0, 0, -1.333333, 0, 666.666687)">
        <g clip-path="url(#clipPath322)" id="g318">
          <g transform="translate(677.1188,404.0236)" id="g324">
            <path id="path326" style="fill:#ffffff;fill-opacity:1;fill-rule:nonzero;stroke:none" d="M 0,0 C -0.394,0.075 -0.374,0.63 -0.022,0.745 3.072,1.758 6.456,1.831 9.63,2.688 9.655,2.778 9.705,2.862 9.789,2.921 12.005,4.489 9.836,6.752 7.925,6.842 6.709,6.898 5.525,6.375 4.448,5.88 2.904,5.171 1.396,4.381 -0.146,3.665 -2.169,2.725 -4.262,2.038 -6.365,2.65 -5.964,1.061 -4.121,-0.507 -3.093,-1.47 -1.726,-2.751 -0.101,-3.873 1.84,-3.961 5.424,-4.123 7.906,-1.303 9.851,1.323 6.797,0.413 3.108,-0.597 0,0"/>
          </g>
          <g transform="translate(695.358,390.7927)" id="g328">
            <path id="path330" style="fill:#ffffff;fill-opacity:1;fill-rule:nonzero;stroke:none" d="M 0,0 C 0.285,-1.91 0.878,-3.916 0.808,-5.852 0.787,-6.424 0.062,-6.508 -0.143,-6.003 -0.924,-4.088 -1.06,-1.754 -1.342,0.289 -1.614,2.263 -1.825,4.248 -1.92,6.239 -2.898,4.747 -3.935,3.267 -4.713,1.687 -5.891,-0.705 -5.767,-3.063 -4.811,-5.502 -3.196,-9.623 -0.154,-15.79 4.716,-16.435 3.379,-13.043 4.301,-9.411 4.554,-5.829 4.889,-1.076 3.732,4.977 -0.729,7.392 -0.715,7.002 -0.701,6.613 -0.679,6.223 -0.558,4.138 -0.309,2.064 0,0"/>
          </g>
          <g transform="translate(710.9293,354.3044)" id="g332">
            <path id="path334" style="fill:#ffffff;fill-opacity:1;fill-rule:nonzero;stroke:none" d="M 0,0 C 0.377,-0.272 -0.087,-0.897 -0.473,-0.659 -5.974,2.726 -11,6.834 -15.452,11.511 c 0.149,-1.891 0.407,-3.753 1.026,-5.584 0.953,-2.823 3.119,-4.652 5.679,-6.024 4.566,-2.448 9.544,-3.211 14.376,-4.775 -4.077,2.486 -4.279,7.254 -6.818,10.949 -1.618,2.353 -4.298,4.395 -6.671,5.947 -2.217,1.451 -4.638,2.19 -7.131,1.304 0.012,-0.013 0.022,-0.026 0.034,-0.039 C -10.479,8.313 -5.425,3.914 0,0"/>
          </g>
          <g transform="translate(680.3424,366.2858)" id="g336">
            <path id="path338" style="fill:#ffffff;fill-opacity:1;fill-rule:nonzero;stroke:none" d="m 0,0 c -1.59,-3.624 -4.026,-8.297 -7.386,-10.586 -0.377,-0.256 -0.888,0.227 -0.654,0.618 1.102,1.843 2.694,3.391 3.905,5.173 1.093,1.608 2.063,3.306 2.913,5.054 0.068,0.14 0.129,0.283 0.195,0.424 -4.49,0.279 -8.762,-4.591 -10.262,-8.328 -1.608,-4.005 -1.157,-8.462 0.897,-12.19 1.362,1.244 2.931,2.166 4.435,3.257 1.793,1.3 3.344,2.916 4.537,4.786 2.118,3.319 3.854,8.58 1.598,12.223 C 0.117,0.288 0.062,0.143 0,0"/>
          </g>
          <g transform="translate(667.0865,378.7141)" id="g340">
            <path id="path342" style="fill:#ffffff;fill-opacity:1;fill-rule:nonzero;stroke:none" d="m 0,0 c -0.496,-0.184 -0.692,0.505 -0.343,0.777 3.524,2.742 7.787,4.583 11.441,7.188 0.261,0.187 0.517,0.382 0.775,0.573 0.289,2.889 -2.982,3.928 -5.234,3.152 C 4.588,10.985 3.091,9.213 1.675,7.661 -0.845,4.901 -3.694,2.762 -7.088,1.266 -4.708,-2.232 0.275,-2.023 3.979,-0.857 7.324,0.196 11.777,3.306 12.108,7.208 8.463,4.495 4.258,1.577 0,0"/>
          </g>
          <g transform="translate(711.2506,342.3376)" id="g344">
            <path id="path346" style="fill:#ffffff;fill-opacity:1;fill-rule:nonzero;stroke:none" d="m 0,0 c -3.544,2.301 -7.245,3.869 -11.327,4.941 -2.612,0.687 -5.607,1.195 -8.202,2.3 0.053,-0.084 0.104,-0.169 0.157,-0.253 3.81,-1.214 7.416,-3.695 10.697,-5.85 3.869,-2.542 7.813,-4.997 11.646,-7.59 0.297,-0.201 0.072,-0.617 -0.259,-0.488 -4.181,1.632 -7.882,4.424 -11.627,6.849 -3.038,1.967 -6.167,3.581 -9.33,5.23 0.431,-0.73 0.864,-1.456 1.335,-2.15 1.48,-2.18 3.096,-4.272 4.846,-6.242 3.323,-3.744 7.125,-7.061 11.171,-10.001 0.337,-0.244 -0.078,-0.806 -0.422,-0.59 -4.414,2.754 -8.359,6.101 -11.821,9.988 -1.664,1.867 -3.218,3.834 -4.629,5.898 -0.158,0.231 -0.319,0.465 -0.481,0.701 1.999,-4.566 5.145,-8.493 8.611,-12.428 5.653,-6.419 11.4,-12.857 18.016,-18.308 0.224,1.929 0.338,3.915 -0.394,5.744 -0.739,1.847 -1.966,3.409 -3.463,4.695 -0.252,0.217 -0.01,0.665 0.309,0.575 0.797,-0.223 1.498,-0.74 2.108,-1.388 1.387,-0.988 2.674,-2.066 4.246,-2.82 1.74,-0.835 3.585,-1.383 5.466,-1.782 -1.111,2.854 -2.658,5.425 -4.468,7.883 -1.427,0.454 -2.684,1.12 -3.52,1.96 -0.193,0.194 -0.022,0.56 0.261,0.486 0.972,-0.252 1.894,-0.597 2.824,-0.917 0.012,-0.003 0.024,-0.007 0.036,-0.012 1.01,-0.347 2.029,-0.66 3.136,-0.786 1.895,-0.217 3.632,0.24 5.453,0.369 C 13.523,-9.417 6.902,-4.483 0,0"/>
          </g>
          <g transform="translate(726.1725,327.9821)" id="g348">
            <path id="path350" style="fill:#bc9728;fill-opacity:1;fill-rule:nonzero;stroke:none" d="M 0,0 C -1.106,0.126 -2.126,0.439 -3.136,0.786 -3.147,0.791 -3.16,0.795 -3.172,0.799 -4.102,1.118 -5.023,1.463 -5.996,1.716 -6.279,1.789 -6.45,1.424 -6.257,1.229 c 0.836,-0.84 2.093,-1.506 3.52,-1.959 1.81,-2.458 3.357,-5.03 4.468,-7.883 -1.88,0.398 -3.726,0.946 -5.466,1.782 -1.572,0.754 -2.859,1.831 -4.245,2.819 -0.611,0.649 -1.312,1.165 -2.109,1.388 -0.319,0.09 -0.56,-0.358 -0.308,-0.574 1.497,-1.286 2.723,-2.849 3.462,-4.695 0.732,-1.829 0.619,-3.815 0.394,-5.744 -6.616,5.45 -12.363,11.889 -18.016,18.308 -3.465,3.934 -6.612,7.861 -8.611,12.428 0.162,-0.236 0.323,-0.471 0.481,-0.702 1.412,-2.064 2.965,-4.03 4.629,-5.897 3.462,-3.888 7.407,-7.234 11.821,-9.989 0.344,-0.215 0.759,0.346 0.423,0.591 -4.047,2.939 -7.849,6.257 -11.172,10 -1.75,1.971 -3.366,4.062 -4.846,6.243 -0.471,0.693 -0.904,1.42 -1.335,2.149 3.163,-1.649 6.292,-3.263 9.33,-5.23 3.745,-2.424 7.446,-5.216 11.627,-6.848 0.331,-0.129 0.556,0.287 0.259,0.488 -3.833,2.593 -7.777,5.047 -11.646,7.589 -3.281,2.156 -6.886,4.637 -10.697,5.851 -0.053,0.084 -0.103,0.169 -0.157,0.252 2.596,-1.105 5.59,-1.613 8.202,-2.299 4.082,-1.072 7.783,-2.64 11.327,-4.942 C -8.02,9.873 -1.398,4.938 5.453,0.37 3.632,0.241 1.896,-0.217 0,0 m -47.25,26.512 c -1.193,-1.87 -2.744,-3.486 -4.537,-4.786 -1.504,-1.092 -3.073,-2.013 -4.435,-3.257 -2.054,3.728 -2.506,8.184 -0.897,12.19 1.5,3.737 5.772,8.607 10.262,8.328 -0.066,-0.141 -0.127,-0.284 -0.195,-0.424 -0.85,-1.749 -1.82,-3.446 -2.913,-5.055 -1.211,-1.781 -2.804,-3.33 -3.905,-5.173 -0.234,-0.39 0.277,-0.874 0.654,-0.617 3.36,2.289 5.796,6.962 7.386,10.586 0.062,0.143 0.117,0.288 0.178,0.431 2.256,-3.644 0.52,-8.904 -1.598,-12.223 m -7.857,23.363 c -3.704,-1.167 -8.687,-1.375 -11.067,2.123 3.394,1.496 6.243,3.635 8.763,6.395 1.416,1.552 2.913,3.324 4.964,4.029 2.252,0.776 5.523,-0.263 5.234,-3.152 -0.258,-0.191 -0.514,-0.386 -0.775,-0.573 -3.654,-2.605 -7.917,-4.447 -11.441,-7.188 -0.349,-0.272 -0.153,-0.961 0.343,-0.777 4.258,1.577 8.463,4.495 12.108,7.208 -0.331,-3.902 -4.784,-7.012 -8.129,-8.065 m 7.893,22.206 c -1.94,0.087 -3.565,1.21 -4.932,2.49 -1.029,0.964 -2.872,2.531 -3.273,4.12 2.104,-0.612 4.196,0.075 6.22,1.015 1.542,0.716 3.05,1.507 4.594,2.216 1.077,0.495 2.26,1.018 3.476,0.961 1.911,-0.089 4.08,-2.353 1.864,-3.92 -0.084,-0.06 -0.133,-0.144 -0.159,-0.234 -3.174,-0.856 -6.557,-0.929 -9.652,-1.942 -0.352,-0.116 -0.371,-0.67 0.022,-0.745 3.109,-0.598 6.797,0.412 9.851,1.322 -1.944,-2.626 -4.427,-5.446 -8.011,-5.283 m 20.953,-15.099 c -0.253,-3.582 -1.175,-7.215 0.162,-10.607 -4.87,0.646 -7.912,6.813 -9.526,10.934 -0.956,2.439 -1.08,4.796 0.098,7.189 0.778,1.58 1.814,3.059 2.793,4.552 0.094,-1.991 0.305,-3.976 0.578,-5.95 0.282,-2.044 0.418,-4.378 1.199,-6.292 0.205,-0.505 0.93,-0.421 0.95,0.15 0.07,1.937 -0.522,3.942 -0.807,5.853 -0.309,2.064 -0.558,4.138 -0.679,6.222 -0.023,0.39 -0.036,0.78 -0.05,1.17 4.461,-2.416 5.617,-8.469 5.282,-13.221 m 3.157,-18.635 c 2.374,-1.553 5.054,-3.595 6.671,-5.948 2.539,-3.695 2.742,-8.463 6.819,-10.948 -4.832,1.564 -9.81,2.326 -14.376,4.774 -2.56,1.373 -4.726,3.201 -5.679,6.024 -0.619,1.832 -0.877,3.693 -1.026,5.584 4.452,-4.677 9.478,-8.785 14.979,-12.17 0.386,-0.238 0.85,0.387 0.473,0.659 -5.425,3.914 -10.48,8.313 -14.957,13.289 -0.012,0.013 -0.023,0.026 -0.034,0.039 2.493,0.886 4.914,0.147 7.13,-1.303 M 6.694,0.461 C -0.135,5.7 -6.968,11.034 -14.197,15.724 c -3.232,2.096 -6.631,3.662 -10.338,4.707 -1.933,0.545 -3.891,0.984 -5.837,1.477 -1.071,0.272 -2.127,0.614 -3.185,0.946 0.445,-0.015 0.877,-0.018 1.268,-0.025 1.667,-0.032 3.302,0.186 4.92,0.571 0.409,0.098 0.31,0.791 -0.116,0.737 -1.532,-0.194 -3.073,-0.267 -4.616,-0.212 -0.526,0.018 -1.075,0.106 -1.628,0.2 0.015,0.227 -0.005,0.459 -0.076,0.692 -0.318,1.044 -1.39,1.769 -2.471,1.747 -0.237,-0.004 -0.464,-0.042 -0.683,-0.105 -2.639,4.232 -3.404,9.346 -4.138,14.307 -0.574,3.889 -0.923,7.721 -0.659,11.543 1.091,-1.991 2.571,-3.905 3.778,-5.606 1.854,-2.612 3.862,-5.131 6.013,-7.506 -0.586,-2.161 0.141,-4.639 0.733,-6.722 0.753,-2.65 2.282,-4.675 4.54,-6.25 4.934,-3.446 12.125,-5.538 18.101,-5.808 0.42,-0.019 0.404,0.557 0.068,0.677 -0.144,0.05 -0.289,0.092 -0.431,0.141 0.229,0.118 0.315,0.497 0.026,0.684 -2.988,1.934 -3.659,5.656 -4.962,8.719 -1.115,2.622 -2.879,4.516 -5.056,6.311 -3.218,2.652 -7.975,6.29 -12.246,3.794 -1.904,2.182 -3.712,4.443 -5.382,6.812 -1.696,2.404 -3.01,5.299 -4.853,7.6 0.189,1.208 0.43,2.417 0.775,3.627 1.635,5.731 4.535,11.059 7.584,16.148 0.205,0.342 0.42,0.68 0.63,1.021 -0.227,-1.569 -0.337,-3.155 -0.346,-4.749 -1.681,-2.232 -3.617,-4.73 -4.549,-7.377 -0.922,-2.618 -0.379,-5.254 0.708,-7.727 2.091,-4.761 5.562,-11.243 11.567,-11.059 0.497,0.016 0.763,0.557 0.531,0.975 -1.414,2.55 -1.108,5.415 -0.8,8.201 0.276,2.499 0.456,4.943 0.045,7.442 -0.574,3.495 -2.335,8.632 -6.282,9.477 -0.036,2.366 0.114,4.718 0.541,7.035 1.202,1.82 2.481,3.589 3.907,5.241 2.272,2.632 4.882,4.688 7.657,6.757 0.727,0.541 0.088,1.582 -0.727,1.196 -4.072,-1.93 -7.356,-5.367 -10.11,-9.106 -2.454,-0.885 -4.793,-2.057 -7.258,-2.939 0.33,0.541 0.46,1.205 0.343,1.938 -0.269,1.699 -1.906,2.686 -3.497,2.882 -5.211,0.64 -10.032,-6.307 -15.134,-3.769 -0.371,0.185 -0.965,0.006 -1.021,-0.466 -0.248,-2.071 1.133,-3.502 2.445,-4.945 1.603,-1.761 3.476,-3.498 5.861,-4.063 4.223,-1.001 9.317,2.429 10.568,6.447 0.041,0.135 0.008,0.262 -0.064,0.37 2.112,0.649 4.351,1.439 6.343,2.54 -0.877,-1.296 -1.7,-2.604 -2.474,-3.876 -1.986,-3.266 -3.899,-6.65 -5.492,-10.165 -2.003,-2.322 -4.269,-4.431 -6.693,-6.306 0.029,3.253 -3.832,4.666 -6.702,3.627 -2.332,-0.844 -3.938,-2.696 -5.575,-4.466 -2.486,-2.685 -5.314,-4.73 -8.723,-6.087 -0.436,-0.173 -0.616,-0.601 -0.398,-1.026 2.507,-4.869 8.798,-4.824 13.349,-3.281 3.815,1.294 9.527,5.519 8.687,10.224 1.769,1.392 3.403,2.881 4.875,4.524 -0.669,-1.716 -1.255,-3.462 -1.71,-5.246 -0.691,-2.708 -0.949,-5.404 -0.957,-8.1 -0.501,-3.373 -1.419,-6.681 -2.76,-9.817 -4.629,0.964 -9.635,-4.174 -11.495,-7.83 -2.497,-4.906 -2.043,-10.77 0.791,-15.422 0.232,-0.38 0.784,-0.443 1.09,-0.114 1.973,2.115 4.677,3.299 6.776,5.279 1.723,1.625 3.103,3.642 4.05,5.809 1.49,3.413 2.424,7.972 0.008,11.125 0.154,0.257 0.149,0.599 -0.119,0.783 0.791,2.061 1.384,4.175 1.797,6.332 0.19,-2.438 0.534,-4.882 0.927,-7.34 0.718,-4.5 1.584,-9.451 4.326,-13.142 -0.165,-0.178 -0.309,-0.38 -0.422,-0.606 -0.482,-0.966 -0.31,-2.209 0.449,-2.983 0.501,-0.512 1.167,-0.733 1.827,-0.715 -0.455,-2.562 -0.831,-5.139 -1.421,-7.682 -0.123,-0.534 0.672,-0.71 0.826,-0.19 0.557,1.883 1.083,3.848 1.446,5.833 1.614,-5.321 5.244,-10.156 8.702,-14.274 6.129,-7.3 12.74,-14.503 20.233,-20.42 0.329,-0.26 0.974,-0.201 1.036,0.314 0.307,2.526 0.639,5.167 -0.4,7.569 -0.034,0.078 -0.076,0.162 -0.112,0.242 2.601,-1.524 5.923,-2.313 8.463,-2.75 0.392,-0.067 0.821,0.287 0.669,0.71 -1.066,2.965 -2.524,5.736 -4.522,8.129 2.801,-0.587 5.925,-0.401 7.787,0.826 0.018,0.012 0.021,0.033 0.037,0.048 0.285,0.041 0.508,0.46 0.228,0.673"/>
          </g>
          <g transform="translate(658.402,431.4665)" id="g352">
            <path id="path354" style="fill:#ffffff;fill-opacity:1;fill-rule:nonzero;stroke:none" d="M 0,0 C -0.128,0.482 0.452,0.778 0.803,0.468 2.776,-1.283 4.075,-3.359 6.414,-4.763 6.993,-5.11 7.576,-5.399 8.165,-5.644 8.327,2.305 -0.132,4.189 -5.533,8.475 -5.672,5.116 -6.106,1.559 -5.638,-1.698 -4.806,-7.477 2.389,-10.564 6.771,-6.619 3.6,-5.256 0.78,-2.936 0,0"/>
          </g>
          <g transform="translate(624.0123,425.4885)" id="g356">
            <path id="path358" style="fill:#ffffff;fill-opacity:1;fill-rule:nonzero;stroke:none" d="M 0,0 C -0.251,0.445 0.307,0.796 0.662,0.511 5.147,-3.079 8.835,-6.588 14.18,-8.716 12.723,-3.86 9.797,0.118 5.255,2.72 2.258,4.437 -1.329,4.994 -3.952,7.213 -5.904,1.617 -5.946,-3.836 -0.599,-7.824 3.309,-10.737 8.38,-11.766 12.832,-9.973 7.442,-8.058 2.704,-4.785 0,0"/>
          </g>
          <g transform="translate(617.1002,398.2805)" id="g360">
            <path id="path362" style="fill:#ffffff;fill-opacity:1;fill-rule:nonzero;stroke:none" d="m 0,0 c -5.151,-2.263 -10.567,-4.521 -15.993,-5.735 -0.434,-0.098 -0.755,0.546 -0.317,0.749 4.998,2.321 10.427,4.04 15.69,5.827 -0.091,0.187 -0.172,0.38 -0.224,0.589 -0.051,0.205 -0.068,0.406 -0.073,0.606 -6.861,-0.786 -14.051,-0.892 -20.751,0.701 -0.395,0.094 -0.312,0.745 0.097,0.714 7.017,-0.536 13.748,-1.095 20.733,-0.642 0.052,0.199 0.126,0.389 0.219,0.569 -11.673,3.422 -23.264,2.838 -35.042,0.113 2.914,-0.455 5.828,-0.911 8.742,-1.367 0.815,-0.127 0.986,-1.478 0.236,-1.808 l -11.004,-4.837 c 3.626,-0.061 7.251,-0.122 10.876,-0.182 0.798,-0.013 1.417,-1.137 0.708,-1.708 -1.705,-1.372 -3.251,-2.823 -4.704,-4.405 5.703,0.413 11.178,1.584 16.63,3.434 4.125,1.399 11.636,3.018 14.414,7.163 C 0.153,-0.153 0.078,-0.075 0,0"/>
          </g>
          <g transform="translate(602.9235,390.8986)" id="g364">
            <path id="path366" style="fill:#bc9728;fill-opacity:1;fill-rule:nonzero;stroke:none" d="m 0,0 c -5.452,-1.85 -10.927,-3.021 -16.63,-3.434 1.453,1.582 2.999,3.033 4.704,4.405 0.709,0.571 0.09,1.695 -0.708,1.708 -3.625,0.06 -7.25,0.121 -10.876,0.182 l 11.004,4.837 c 0.75,0.329 0.579,1.68 -0.236,1.808 -2.914,0.456 -5.828,0.911 -8.742,1.367 C -9.706,13.598 1.885,14.182 13.558,10.76 13.465,10.58 13.391,10.39 13.339,10.191 6.354,9.738 -0.377,10.297 -7.395,10.833 -7.804,10.864 -7.887,10.213 -7.491,10.119 -0.791,8.525 6.398,8.631 13.26,9.417 13.265,9.218 13.282,9.017 13.333,8.812 13.385,8.603 13.466,8.41 13.557,8.223 8.294,6.436 2.865,4.717 -2.133,2.396 -2.571,2.192 -2.25,1.549 -1.816,1.646 3.609,2.861 9.025,5.119 14.177,7.382 14.255,7.307 14.33,7.229 14.414,7.163 11.636,3.018 4.125,1.399 0,0 m 20.49,26.766 c -5.347,3.988 -5.305,9.441 -3.353,15.037 2.623,-2.22 6.21,-2.776 9.207,-4.493 4.542,-2.602 7.468,-6.581 8.925,-11.436 -5.345,2.127 -9.033,5.637 -13.518,9.227 -0.355,0.285 -0.913,-0.066 -0.662,-0.511 2.704,-4.785 7.442,-8.058 12.832,-9.973 -4.452,-1.793 -9.524,-0.764 -13.431,2.149 M 49.841,38.87 c -0.469,3.256 -0.034,6.814 0.104,10.172 5.402,-4.285 13.861,-6.169 13.699,-14.118 -0.589,0.244 -1.172,0.534 -1.751,0.881 -2.339,1.404 -3.638,3.48 -5.612,5.231 -0.35,0.31 -0.93,0.014 -0.802,-0.468 0.78,-2.936 3.599,-5.256 6.77,-6.619 C 57.867,30.003 50.673,33.091 49.841,38.87 M 90.107,28.568 c -6.875,4.486 -13.836,6.075 -20.678,4.938 -0.052,0.038 -0.115,0.068 -0.199,0.079 -1.667,0.231 -3.232,0.503 -4.744,1.022 1.191,9.544 -9.329,10.866 -14.712,16.489 -0.46,0.481 -1.183,0.084 -1.229,-0.509 -0.311,-4.012 -0.528,-8.286 -0.191,-12.307 0.203,-2.422 1.142,-3.983 3.162,-5.392 3.65,-2.549 9.152,-3.369 11.965,0.588 0.915,-0.313 1.838,-0.553 2.737,-0.697 -3.434,-1.008 -6.829,-2.701 -10.159,-5.085 -1.628,-1.165 -3.205,-2.4 -4.769,-3.652 -4.922,-0.646 -9.948,-0.27 -14.683,1.321 -0.582,4.109 -2.834,7.751 -5.9,10.536 -1.721,1.562 -3.675,2.882 -5.77,3.889 -2.655,1.275 -5.523,1.894 -7.527,4.223 -0.479,0.557 -1.251,0.169 -1.476,-0.39 -2.736,-6.788 -2.914,-13.674 3.503,-18.416 4.004,-2.96 12.362,-5.436 16.304,-1.18 4.542,-1.328 9.421,-1.742 13.871,-1.328 -2.873,-2.32 -5.743,-4.642 -8.837,-6.662 -6.463,-4.22 -13.598,-6.138 -21.108,-6.241 -0.252,0.37 -0.514,0.733 -0.789,1.087 -0.212,0.642 -0.583,1.215 -1.153,1.57 -0.021,0.012 -0.043,0.019 -0.064,0.031 -0.233,0.328 -0.459,0.662 -0.659,1.015 -0.876,1.545 -1.582,3.178 -2.285,4.806 -0.147,0.339 -0.731,0.096 -0.6,-0.252 0.573,-1.535 1.194,-3.475 2.05,-5.243 -0.631,-0.053 -1.245,-0.321 -1.709,-0.783 -0.026,-0.026 -0.047,-0.058 -0.073,-0.086 -12.917,5.248 -27.943,3.257 -41.047,-0.338 -0.874,-0.24 -1.001,-1.744 0,-1.901 3.394,-0.533 6.79,-1.066 10.184,-1.598 -4.025,-1.768 -8.05,-3.534 -12.076,-5.301 -0.951,-0.417 -0.408,-1.837 0.501,-1.852 4.257,-0.074 8.514,-0.15 12.771,-0.224 -1.568,-1.415 -3.011,-2.92 -4.379,-4.581 -0.517,-0.627 -0.23,-1.749 0.712,-1.717 8.905,0.308 17.112,2.611 25.385,5.791 3.437,1.322 8.444,2.824 10.113,6.326 0.033,0.004 0.065,0.013 0.098,0.018 0.322,-0.005 0.641,0.035 0.935,0.167 C 17.55,6.393 17.515,6.057 17.457,5.718 17.207,4.242 16.646,2.867 16.33,1.413 16.221,0.911 16.857,0.651 17.144,1.069 c 1.216,1.774 1.821,4.371 1.804,6.779 7.81,-0.311 14.864,1.893 21.371,5.714 -4.3,-6.793 -4.105,-15.395 -5.203,-23.191 -0.053,-0.376 0.485,-0.553 0.588,-0.162 1.245,4.69 1.421,9.545 2.289,14.195 5.498,-2.337 3.044,-10.911 0.513,-14.368 -1.835,-2.506 -4.427,-4.284 -7.09,-5.836 0.627,2.96 0.804,5.926 0.423,8.97 -0.61,4.883 -1.546,10.232 4.844,11.374 0.335,0.06 0.261,0.63 -0.081,0.599 -2.826,-0.255 -5.264,-1.826 -6.231,-4.617 -0.614,-1.776 -0.176,-3.41 0.11,-5.19 0.67,-4.171 0.573,-7.871 -0.333,-12.035 -0.089,-0.415 0.36,-0.844 0.759,-0.584 4.96,3.222 9.445,6.219 10.944,12.265 1.027,4.142 0.752,8.887 -3.616,10.598 0.688,3.172 1.779,6.232 3.84,9.059 2.197,1.407 4.337,2.983 6.419,4.712 1.515,1.257 3.018,2.563 4.545,3.845 0.419,0.086 0.834,0.177 1.24,0.278 0.472,0.118 0.459,0.649 0.177,0.898 3.336,2.719 6.84,5.219 10.884,6.753 8.434,3.202 16.62,0.596 24.069,-3.75 0.775,-0.453 1.44,0.709 0.698,1.193"/>
          </g>
        </g>
      </g>
    </g>
    <g id="g592" transform="matrix(1.333333, 0, 0, -1.333333, -212.511688, 550.36853)">
      <g clip-path="url(#clipPath598)" id="g594" style="transform-origin: 386.235px 134.786px;" transform="matrix(1, 0, 0, 1, 22.536064, -3.554954)">
        <g>
          <g>
            <g>
              <g>
                <g id="g556">
                  <g id="g558">
                    <g id="g564">
                      <g id="g566">
                        <path id="path590" style="fill:url(#linearGradient588);stroke:none" d="M 329.971,201.121 V 60.516 h 140.605 v 4 H 333.971 v 136.605 z"/>
                      </g>
                    </g>
                  </g>
                </g>
                <g transform="matrix(1, 0, 0, 1, 348.508911, 86.872704)" id="g600">
                  <path id="path602" style="fill:#bc9728;fill-opacity:1;fill-rule:nonzero;stroke:none" d="m 0,0 c -3.139,-1.683 -6.394,-3.017 -9.713,-4.26 0.088,0.228 0.174,0.456 0.259,0.686 2.559,2.357 4.645,5.388 6.996,7.915 1.136,1.22 2.329,2.42 3.74,3.32 C 2.739,8.59 5.96,10.103 7.17,8.158 9.477,4.452 2.414,1.294 0,0 m -7.661,12.874 c -1.122,0.389 -2.114,0.592 -2.987,1.475 -0.797,0.806 -1.338,1.9 -1.393,3.041 -0.025,0.532 -0.163,1.339 0.648,1.248 0.362,-0.041 1.177,-1.159 1.431,-1.43 0.872,-0.931 1.676,-1.921 2.46,-2.927 -0.032,-0.479 -0.064,-0.958 -0.105,-1.436 -0.019,0.009 -0.034,0.022 -0.054,0.029 m 5.322,8.049 c 1.203,1.201 4.276,4.526 6.046,2.64 1.927,-2.053 -3.612,-4.267 -4.863,-4.93 -1.218,-0.647 -2.651,-1.24 -3.952,-1.967 0.418,1.641 1.544,3.033 2.769,4.257 m -17.677,27.093 c -0.452,0.268 -2.67,1.7 -1.619,2.414 0.157,0.107 0.859,-0.078 1.042,-0.1 0.685,-0.083 1.373,-0.194 2.051,-0.323 1.885,-0.359 3.742,-0.89 5.467,-1.738 1.885,-0.929 3.566,-2.28 4.766,-3.957 -0.78,0.45 -1.614,0.803 -2.396,1.071 -3.035,1.042 -6.501,0.96 -9.311,2.633 m 14.887,3.251 c 0.653,1.385 1.523,2.671 2.639,3.727 1.286,1.217 4.004,3.118 5.576,1.4 1.681,-1.836 -1.448,-2.939 -2.766,-3.536 -1.57,-0.711 -3.16,-1.392 -4.548,-2.431 -0.72,-0.539 -1.363,-1.158 -1.891,-1.843 0.259,0.922 0.584,1.821 0.99,2.683 m -23.443,8.863 c -1.303,-0.651 -3.445,-1.657 -4.654,-0.26 -1.891,2.186 2.059,3.339 3.522,3.35 2.557,0.017 5.077,-0.473 7.462,-1.351 -2.216,0.024 -4.275,-0.713 -6.33,-1.739 M 8.122,8.953 C 5.767,12.372 0.866,9.485 -1.4,7.522 -3.127,6.027 -4.562,4.224 -6.041,2.492 -6.75,1.662 -7.511,0.839 -8.257,-0.001 c 1.396,4.66 2.236,9.514 2.601,14.366 1.454,0.575 2.845,1.563 4.163,2.295 1.71,0.95 3.586,1.793 5.148,2.978 1.691,1.281 2.907,3.873 0.61,5.275 -2.518,1.537 -5.023,-0.765 -6.744,-2.417 -1.146,-1.1 -2.252,-2.329 -2.958,-3.721 0.052,2.32 0.001,4.646 -0.191,6.948 -0.145,1.733 -0.483,3.392 -1.638,4.752 -0.036,0.043 -0.077,0.08 -0.114,0.122 1.466,2.851 2.126,6.175 2.083,9.49 0.099,0.134 0.149,0.309 0.105,0.511 -0.037,0.172 -0.086,0.338 -0.142,0.5 -0.076,1.361 -0.267,2.712 -0.569,4.018 1.095,4.055 6.227,5.203 9.464,7.264 1.249,0.796 2.209,2.073 1.78,3.622 -0.369,1.336 -1.578,2.347 -2.92,2.577 -3.524,0.606 -6.735,-2.775 -8.28,-5.558 -0.641,-1.155 -1.118,-2.37 -1.453,-3.621 -0.245,0.58 -0.507,1.151 -0.783,1.713 -1.987,5.925 -4.614,13.136 -0.7,18.844 0.881,1.285 2.024,2.371 3.264,3.31 0.696,0.526 0.616,0.602 1.558,0.265 0.909,-0.325 0.904,-0.376 0.786,-1.236 -0.101,-0.742 -0.43,-1.45 -0.845,-2.069 -0.74,-1.105 -1.824,-1.955 -2.932,-2.663 -1.069,-0.683 -2.355,-1.13 -3.288,-1.995 -0.616,-0.571 0.045,-1.445 0.762,-1.309 1.675,0.317 3.387,1.665 4.674,2.744 1.255,1.053 2.344,2.371 2.837,3.956 0.39,1.257 0.484,2.996 -0.576,3.983 -1.259,1.173 -2.778,0.22 -3.885,-0.642 -3.336,-2.597 -5.331,-6.004 -5.627,-10.259 -0.194,-2.782 0.337,-5.5 1.189,-8.13 -1.028,1.554 -2.131,3.066 -3.261,4.566 -3.209,4.257 -6.432,8.671 -7.656,13.961 -0.647,2.794 -0.619,5.693 0.26,8.433 0.403,1.256 0.969,2.45 1.727,3.531 0.754,1.075 1.747,1.917 2.527,2.964 0.421,0.566 -0.277,1.389 -0.908,1.181 -3.89,-1.282 -5.798,-6.491 -6.246,-10.165 -0.591,-4.857 1.018,-9.681 3.389,-13.865 1.274,-2.248 2.807,-4.308 4.377,-6.342 -1.616,1.179 -3.386,2.147 -5.291,2.894 -3.123,1.226 -8.329,2.74 -11.42,0.728 -2.466,-1.604 -2.217,-5.134 0.719,-5.961 1.624,-0.458 3.174,0.124 4.628,0.835 2.476,1.21 4.662,1.806 7.434,1.816 0.29,10e-4 0.489,0.201 0.564,0.44 2.097,-1.023 4.05,-2.346 5.783,-3.891 0.855,-1.134 1.687,-2.284 2.456,-3.48 1.428,-2.221 2.651,-4.617 3.506,-7.124 -0.939,1.046 -2.065,1.947 -3.317,2.671 -2.014,1.163 -4.273,1.869 -6.545,2.315 -1.344,0.265 -3.933,1.129 -4.991,-0.14 -1.016,-1.218 0.146,-2.789 1.094,-3.617 1.417,-1.237 3.224,-1.891 5.025,-2.334 1.97,-0.485 4.003,-0.698 5.929,-1.361 1.716,-0.59 2.944,-1.426 3.971,-2.702 0.103,-0.965 0.145,-1.94 0.11,-2.921 -0.081,-2.301 -0.634,-4.562 -1.591,-6.626 -1.036,0.791 -2.224,1.411 -3.353,2.008 -3.351,1.772 -7.109,3.295 -10.974,2.775 -3.049,-0.41 -6.061,-2.04 -7.411,-4.916 -1.448,-3.084 -0.544,-7.049 2.098,-9.201 2.566,-2.091 7.051,-2.391 9.432,0.13 0.592,0.627 -0.149,1.495 -0.887,1.149 -2.955,-1.388 -6.549,-1.623 -8.503,1.525 -1.647,2.655 -0.845,6.035 1.67,7.796 2.584,1.81 5.831,1.85 8.768,1.001 1.667,-0.482 3.244,-1.218 4.776,-2.023 1.138,-0.599 2.402,-1.195 3.419,-2.035 -1.33,-2.148 -3.138,-3.993 -5.358,-5.307 -0.405,-0.239 -0.133,-0.986 0.334,-0.791 2.617,1.098 4.632,2.83 6.109,4.938 0.886,-1.331 0.921,-3.009 1.014,-4.577 0.088,-1.467 0.137,-2.937 0.144,-4.407 0.006,-1.211 -0.024,-2.421 -0.074,-3.631 -0.415,0.546 -0.849,1.078 -1.307,1.595 -0.641,0.724 -1.345,1.694 -2.18,2.185 -1.487,0.873 -2.361,-0.499 -2.498,-1.89 -0.291,-2.929 2.405,-6.892 5.67,-6.329 -0.027,-0.262 -0.047,-0.525 -0.076,-0.785 -0.562,-5.019 -1.69,-9.991 -3.421,-14.739 -0.934,3.094 -2.02,6.233 -3.903,8.876 -1.211,1.701 -4.944,5.861 -7.372,4.17 -2.501,-1.741 0.314,-6.537 1.434,-8.287 1.832,-2.86 4.812,-5.978 8.177,-6.933 0.734,-0.209 1.093,0.785 0.5,1.186 -2.373,1.608 -4.651,2.907 -6.46,5.212 -0.87,1.108 -1.609,2.325 -2.186,3.611 -0.444,0.99 -1.943,4.386 0.359,3.88 2.38,-0.523 4.468,-3.467 5.583,-5.405 1.352,-2.349 2.245,-4.924 3.081,-7.491 0.044,-0.139 0.126,-0.234 0.224,-0.295 -0.075,-0.191 -0.149,-0.381 -0.225,-0.57 -2.502,-6.146 -6.214,-11.726 -11.116,-16.214 -0.474,-0.434 0.222,-1.113 0.7,-0.7 5.378,4.648 9.301,10.444 12.013,16.81 4.775,1.41 9.371,3.661 13.592,6.27 2.653,1.638 7.506,4.908 4.934,8.644"/>
                </g>
                <g transform="matrix(1, 0, 0, 1, 359.220306, 86.489899)" id="g604">
                  <path id="path606" style="fill:#bc9728;fill-opacity:1;fill-rule:nonzero;stroke:none" d="m 0,0 c 1.944,-1.21 0.432,-4.432 -0.497,-5.889 -0.9,-1.411 -2.101,-2.603 -3.32,-3.739 -2.526,-2.351 -5.558,-4.437 -7.915,-6.996 -0.229,-0.086 -0.458,-0.172 -0.686,-0.26 1.244,3.32 2.578,6.574 4.26,9.713 C -6.864,-4.757 -3.706,2.306 0,0 m 4.686,-14.777 c 0.479,0.041 0.958,0.072 1.438,0.104 1.005,-0.783 1.996,-1.588 2.926,-2.46 0.27,-0.254 1.388,-1.068 1.43,-1.43 0.092,-0.811 -0.716,-0.674 -1.249,-0.648 -1.14,0.055 -2.233,0.595 -3.04,1.393 -0.883,0.873 -1.086,1.865 -1.475,2.986 -0.007,0.02 -0.021,0.035 -0.03,0.055 m 3.822,2.499 c 0.727,1.3 1.321,2.734 1.967,3.951 0.663,1.252 2.877,6.79 4.93,4.863 1.887,-1.77 -1.439,-4.843 -2.64,-6.046 -1.224,-1.224 -2.616,-2.35 -4.257,-2.768 m 28.718,-5.597 c -0.269,0.781 -0.622,1.615 -1.073,2.396 1.678,-1.201 3.03,-2.881 3.957,-4.766 0.85,-1.726 1.38,-3.582 1.739,-5.467 0.129,-0.679 0.24,-1.367 0.323,-2.052 0.021,-0.182 0.207,-0.884 0.099,-1.042 -0.713,-1.05 -2.145,1.167 -2.414,1.619 -1.672,2.811 -1.59,6.276 -2.631,9.312 m 3.2,4.586 c 0.685,0.527 1.303,1.171 1.843,1.891 1.039,1.387 1.72,2.978 2.431,4.547 0.597,1.318 1.699,4.447 3.536,2.767 1.719,-1.572 -0.183,-4.29 -1.4,-5.577 -1.056,-1.116 -2.342,-1.985 -3.728,-2.639 -0.86,-0.405 -1.76,-0.73 -2.682,-0.989 m 13.285,-16.124 c 0.878,-2.385 1.368,-4.905 1.351,-7.461 -0.01,-1.464 -1.165,-5.414 -3.35,-3.522 -1.398,1.208 -0.39,3.35 0.261,4.653 1.026,2.055 1.761,4.114 1.738,6.33 M -7.85,-3.982 c -2.608,-4.222 -4.859,-8.818 -6.269,-13.593 -6.366,-2.712 -12.162,-6.634 -16.81,-12.013 -0.413,-0.477 0.266,-1.174 0.7,-0.7 4.489,4.902 10.068,8.614 16.214,11.116 0.189,0.076 0.38,0.151 0.569,0.226 0.062,-0.098 0.157,-0.18 0.296,-0.225 2.567,-0.836 5.143,-1.728 7.491,-3.081 1.937,-1.115 4.882,-3.203 5.405,-5.582 0.506,-2.303 -2.891,-0.804 -3.879,-0.359 -1.286,0.577 -2.503,1.315 -3.612,2.185 -2.305,1.81 -3.604,4.087 -5.212,6.46 -0.401,0.594 -1.395,0.235 -1.187,-0.5 0.956,-3.364 4.074,-6.345 6.935,-8.177 1.749,-1.12 6.545,-3.935 8.286,-1.433 1.691,2.428 -2.469,6.16 -4.17,7.371 -2.643,1.884 -5.782,2.97 -8.876,3.903 4.748,1.731 9.72,2.86 14.739,3.421 0.261,0.029 0.523,0.05 0.785,0.076 -0.562,-3.264 3.401,-5.961 6.329,-5.67 1.39,0.138 2.763,1.011 1.89,2.498 -0.49,0.835 -1.461,1.539 -2.185,2.18 -0.516,0.458 -1.048,0.892 -1.595,1.308 1.21,0.05 2.421,0.079 3.631,0.073 1.47,-0.007 2.94,-0.056 4.407,-0.144 1.569,-0.092 3.245,-0.128 4.576,-1.014 -2.107,-1.477 -3.839,-3.491 -4.937,-6.109 -0.195,-0.466 0.552,-0.739 0.791,-0.334 1.313,2.22 3.159,4.029 5.307,5.359 0.839,-1.018 1.437,-2.281 2.035,-3.419 0.805,-1.533 1.541,-3.11 2.023,-4.777 0.85,-2.937 0.809,-6.184 -1.001,-8.768 -1.762,-2.515 -5.14,-3.317 -7.796,-1.669 -3.148,1.953 -2.912,5.547 -1.525,8.502 0.346,0.738 -0.522,1.479 -1.15,0.887 -2.52,-2.38 -2.22,-6.867 -0.129,-9.432 2.152,-2.642 6.117,-3.545 9.201,-2.098 2.876,1.351 4.506,4.362 4.916,7.411 0.519,3.865 -1.003,7.624 -2.776,10.975 -0.596,1.129 -1.215,2.316 -2.006,3.353 2.064,0.956 4.324,1.509 6.625,1.59 0.981,0.036 1.956,-0.006 2.921,-0.11 1.276,-1.027 2.112,-2.255 2.703,-3.971 0.662,-1.925 0.875,-3.959 1.36,-5.928 0.443,-1.802 1.097,-3.609 2.334,-5.026 0.828,-0.948 2.399,-2.11 3.617,-1.093 1.27,1.057 0.404,3.647 0.141,4.991 -0.448,2.271 -1.154,4.53 -2.317,6.544 -0.722,1.253 -1.623,2.378 -2.671,3.317 2.508,-0.854 4.905,-2.077 7.124,-3.506 1.197,-0.769 2.347,-1.601 3.481,-2.456 1.546,-1.733 2.868,-3.685 3.891,-5.782 -0.238,-0.075 -0.439,-0.274 -0.44,-0.565 -0.011,-2.772 -0.606,-4.958 -1.816,-7.433 -0.711,-1.455 -1.292,-3.004 -0.835,-4.628 0.828,-2.937 4.357,-3.186 5.961,-0.72 2.011,3.091 0.499,8.296 -0.728,11.42 -0.747,1.905 -1.715,3.676 -2.894,5.291 2.034,-1.569 4.094,-3.103 6.341,-4.377 4.186,-2.371 9.009,-3.98 13.867,-3.388 3.672,0.447 8.881,2.355 10.165,6.246 0.208,0.63 -0.617,1.328 -1.182,0.907 -1.047,-0.779 -1.89,-1.773 -2.964,-2.527 -1.081,-0.757 -2.275,-1.324 -3.531,-1.726 -2.74,-0.88 -5.639,-0.908 -8.433,-0.262 -5.29,1.225 -9.703,4.448 -13.962,7.657 -1.499,1.13 -3.011,2.234 -4.565,3.26 2.631,-0.851 5.349,-1.382 8.13,-1.187 4.255,0.296 7.662,2.291 10.26,5.626 0.862,1.107 1.814,2.627 0.641,3.885 -0.987,1.06 -2.726,0.966 -3.982,0.576 -1.586,-0.493 -2.904,-1.581 -3.957,-2.837 -1.079,-1.286 -2.427,-2.998 -2.744,-4.673 -0.136,-0.718 0.738,-1.378 1.309,-0.763 0.865,0.934 1.313,2.219 1.995,3.288 0.709,1.109 1.559,2.192 2.663,2.933 0.619,0.414 1.327,0.744 2.069,0.845 0.86,0.117 0.912,0.122 1.236,-0.787 0.337,-0.941 0.262,-0.862 -0.266,-1.558 -0.938,-1.239 -2.024,-2.382 -3.309,-3.264 -5.708,-3.914 -12.919,-1.286 -18.843,0.7 -0.562,0.277 -1.134,0.538 -1.714,0.783 1.251,0.336 2.466,0.812 3.62,1.453 2.784,1.546 6.164,4.757 5.559,8.28 -0.231,1.343 -1.241,2.551 -2.577,2.92 -1.549,0.429 -2.825,-0.53 -3.621,-1.78 -2.062,-3.237 -3.21,-8.369 -7.264,-9.463 -1.307,0.302 -2.658,0.492 -4.02,0.568 -0.162,0.057 -0.327,0.105 -0.499,0.143 -0.202,0.044 -0.377,-0.006 -0.511,-0.106 -3.315,0.043 -6.639,-0.616 -9.491,-2.083 -0.041,0.037 -0.079,0.078 -0.122,0.114 -1.358,1.155 -3.017,1.493 -4.752,1.638 -2.301,0.193 -4.627,0.243 -6.947,0.191 1.392,0.706 2.622,1.812 3.721,2.958 1.653,1.721 3.955,4.226 2.418,6.744 -1.403,2.297 -3.995,1.081 -5.276,-0.61 -1.185,-1.562 -2.027,-3.437 -2.978,-5.147 -0.732,-1.318 -1.72,-2.709 -2.295,-4.163 -4.852,-0.365 -9.706,-1.206 -14.366,-2.602 0.84,0.746 1.663,1.507 2.493,2.216 1.732,1.479 3.535,2.914 5.031,4.642 1.962,2.265 4.849,7.167 1.43,9.521 -3.736,2.572 -7.006,-2.281 -8.645,-4.933"/>
                </g>
              </g>
            </g>
          </g>
        </g>
      </g>
    </g>
    <g id="group-1" transform="matrix(-1.333333, 0, 0, -1.333333, 1101.807495, 550.790283)" style="">
      <g clip-path="url(#clip-1)" id="group-2" style="transform-origin: 386.235px 134.786px;" transform="matrix(1, 0, 0, 1, 22.536064, -3.554954)">
        <g>
          <g>
            <g>
              <g>
                <g id="group-3">
                  <g id="group-4">
                    <g id="group-5">
                      <g id="group-6">
                        <path id="path-2" style="stroke: none; fill: url(&quot;#gradient-1&quot;);" d="M 329.971,201.121 V 60.516 h 140.605 v 4 H 333.971 v 136.605 z"/>
                      </g>
                    </g>
                  </g>
                </g>
                <g transform="matrix(1, 0, 0, 1, 348.508911, 86.872704)" id="group-7">
                  <path id="path-3" style="fill:#bc9728;fill-opacity:1;fill-rule:nonzero;stroke:none" d="m 0,0 c -3.139,-1.683 -6.394,-3.017 -9.713,-4.26 0.088,0.228 0.174,0.456 0.259,0.686 2.559,2.357 4.645,5.388 6.996,7.915 1.136,1.22 2.329,2.42 3.74,3.32 C 2.739,8.59 5.96,10.103 7.17,8.158 9.477,4.452 2.414,1.294 0,0 m -7.661,12.874 c -1.122,0.389 -2.114,0.592 -2.987,1.475 -0.797,0.806 -1.338,1.9 -1.393,3.041 -0.025,0.532 -0.163,1.339 0.648,1.248 0.362,-0.041 1.177,-1.159 1.431,-1.43 0.872,-0.931 1.676,-1.921 2.46,-2.927 -0.032,-0.479 -0.064,-0.958 -0.105,-1.436 -0.019,0.009 -0.034,0.022 -0.054,0.029 m 5.322,8.049 c 1.203,1.201 4.276,4.526 6.046,2.64 1.927,-2.053 -3.612,-4.267 -4.863,-4.93 -1.218,-0.647 -2.651,-1.24 -3.952,-1.967 0.418,1.641 1.544,3.033 2.769,4.257 m -17.677,27.093 c -0.452,0.268 -2.67,1.7 -1.619,2.414 0.157,0.107 0.859,-0.078 1.042,-0.1 0.685,-0.083 1.373,-0.194 2.051,-0.323 1.885,-0.359 3.742,-0.89 5.467,-1.738 1.885,-0.929 3.566,-2.28 4.766,-3.957 -0.78,0.45 -1.614,0.803 -2.396,1.071 -3.035,1.042 -6.501,0.96 -9.311,2.633 m 14.887,3.251 c 0.653,1.385 1.523,2.671 2.639,3.727 1.286,1.217 4.004,3.118 5.576,1.4 1.681,-1.836 -1.448,-2.939 -2.766,-3.536 -1.57,-0.711 -3.16,-1.392 -4.548,-2.431 -0.72,-0.539 -1.363,-1.158 -1.891,-1.843 0.259,0.922 0.584,1.821 0.99,2.683 m -23.443,8.863 c -1.303,-0.651 -3.445,-1.657 -4.654,-0.26 -1.891,2.186 2.059,3.339 3.522,3.35 2.557,0.017 5.077,-0.473 7.462,-1.351 -2.216,0.024 -4.275,-0.713 -6.33,-1.739 M 8.122,8.953 C 5.767,12.372 0.866,9.485 -1.4,7.522 -3.127,6.027 -4.562,4.224 -6.041,2.492 -6.75,1.662 -7.511,0.839 -8.257,-0.001 c 1.396,4.66 2.236,9.514 2.601,14.366 1.454,0.575 2.845,1.563 4.163,2.295 1.71,0.95 3.586,1.793 5.148,2.978 1.691,1.281 2.907,3.873 0.61,5.275 -2.518,1.537 -5.023,-0.765 -6.744,-2.417 -1.146,-1.1 -2.252,-2.329 -2.958,-3.721 0.052,2.32 0.001,4.646 -0.191,6.948 -0.145,1.733 -0.483,3.392 -1.638,4.752 -0.036,0.043 -0.077,0.08 -0.114,0.122 1.466,2.851 2.126,6.175 2.083,9.49 0.099,0.134 0.149,0.309 0.105,0.511 -0.037,0.172 -0.086,0.338 -0.142,0.5 -0.076,1.361 -0.267,2.712 -0.569,4.018 1.095,4.055 6.227,5.203 9.464,7.264 1.249,0.796 2.209,2.073 1.78,3.622 -0.369,1.336 -1.578,2.347 -2.92,2.577 -3.524,0.606 -6.735,-2.775 -8.28,-5.558 -0.641,-1.155 -1.118,-2.37 -1.453,-3.621 -0.245,0.58 -0.507,1.151 -0.783,1.713 -1.987,5.925 -4.614,13.136 -0.7,18.844 0.881,1.285 2.024,2.371 3.264,3.31 0.696,0.526 0.616,0.602 1.558,0.265 0.909,-0.325 0.904,-0.376 0.786,-1.236 -0.101,-0.742 -0.43,-1.45 -0.845,-2.069 -0.74,-1.105 -1.824,-1.955 -2.932,-2.663 -1.069,-0.683 -2.355,-1.13 -3.288,-1.995 -0.616,-0.571 0.045,-1.445 0.762,-1.309 1.675,0.317 3.387,1.665 4.674,2.744 1.255,1.053 2.344,2.371 2.837,3.956 0.39,1.257 0.484,2.996 -0.576,3.983 -1.259,1.173 -2.778,0.22 -3.885,-0.642 -3.336,-2.597 -5.331,-6.004 -5.627,-10.259 -0.194,-2.782 0.337,-5.5 1.189,-8.13 -1.028,1.554 -2.131,3.066 -3.261,4.566 -3.209,4.257 -6.432,8.671 -7.656,13.961 -0.647,2.794 -0.619,5.693 0.26,8.433 0.403,1.256 0.969,2.45 1.727,3.531 0.754,1.075 1.747,1.917 2.527,2.964 0.421,0.566 -0.277,1.389 -0.908,1.181 -3.89,-1.282 -5.798,-6.491 -6.246,-10.165 -0.591,-4.857 1.018,-9.681 3.389,-13.865 1.274,-2.248 2.807,-4.308 4.377,-6.342 -1.616,1.179 -3.386,2.147 -5.291,2.894 -3.123,1.226 -8.329,2.74 -11.42,0.728 -2.466,-1.604 -2.217,-5.134 0.719,-5.961 1.624,-0.458 3.174,0.124 4.628,0.835 2.476,1.21 4.662,1.806 7.434,1.816 0.29,10e-4 0.489,0.201 0.564,0.44 2.097,-1.023 4.05,-2.346 5.783,-3.891 0.855,-1.134 1.687,-2.284 2.456,-3.48 1.428,-2.221 2.651,-4.617 3.506,-7.124 -0.939,1.046 -2.065,1.947 -3.317,2.671 -2.014,1.163 -4.273,1.869 -6.545,2.315 -1.344,0.265 -3.933,1.129 -4.991,-0.14 -1.016,-1.218 0.146,-2.789 1.094,-3.617 1.417,-1.237 3.224,-1.891 5.025,-2.334 1.97,-0.485 4.003,-0.698 5.929,-1.361 1.716,-0.59 2.944,-1.426 3.971,-2.702 0.103,-0.965 0.145,-1.94 0.11,-2.921 -0.081,-2.301 -0.634,-4.562 -1.591,-6.626 -1.036,0.791 -2.224,1.411 -3.353,2.008 -3.351,1.772 -7.109,3.295 -10.974,2.775 -3.049,-0.41 -6.061,-2.04 -7.411,-4.916 -1.448,-3.084 -0.544,-7.049 2.098,-9.201 2.566,-2.091 7.051,-2.391 9.432,0.13 0.592,0.627 -0.149,1.495 -0.887,1.149 -2.955,-1.388 -6.549,-1.623 -8.503,1.525 -1.647,2.655 -0.845,6.035 1.67,7.796 2.584,1.81 5.831,1.85 8.768,1.001 1.667,-0.482 3.244,-1.218 4.776,-2.023 1.138,-0.599 2.402,-1.195 3.419,-2.035 -1.33,-2.148 -3.138,-3.993 -5.358,-5.307 -0.405,-0.239 -0.133,-0.986 0.334,-0.791 2.617,1.098 4.632,2.83 6.109,4.938 0.886,-1.331 0.921,-3.009 1.014,-4.577 0.088,-1.467 0.137,-2.937 0.144,-4.407 0.006,-1.211 -0.024,-2.421 -0.074,-3.631 -0.415,0.546 -0.849,1.078 -1.307,1.595 -0.641,0.724 -1.345,1.694 -2.18,2.185 -1.487,0.873 -2.361,-0.499 -2.498,-1.89 -0.291,-2.929 2.405,-6.892 5.67,-6.329 -0.027,-0.262 -0.047,-0.525 -0.076,-0.785 -0.562,-5.019 -1.69,-9.991 -3.421,-14.739 -0.934,3.094 -2.02,6.233 -3.903,8.876 -1.211,1.701 -4.944,5.861 -7.372,4.17 -2.501,-1.741 0.314,-6.537 1.434,-8.287 1.832,-2.86 4.812,-5.978 8.177,-6.933 0.734,-0.209 1.093,0.785 0.5,1.186 -2.373,1.608 -4.651,2.907 -6.46,5.212 -0.87,1.108 -1.609,2.325 -2.186,3.611 -0.444,0.99 -1.943,4.386 0.359,3.88 2.38,-0.523 4.468,-3.467 5.583,-5.405 1.352,-2.349 2.245,-4.924 3.081,-7.491 0.044,-0.139 0.126,-0.234 0.224,-0.295 -0.075,-0.191 -0.149,-0.381 -0.225,-0.57 -2.502,-6.146 -6.214,-11.726 -11.116,-16.214 -0.474,-0.434 0.222,-1.113 0.7,-0.7 5.378,4.648 9.301,10.444 12.013,16.81 4.775,1.41 9.371,3.661 13.592,6.27 2.653,1.638 7.506,4.908 4.934,8.644"/>
                </g>
                <g transform="matrix(1, 0, 0, 1, 359.220306, 86.489899)" id="group-8">
                  <path id="path-4" style="fill:#bc9728;fill-opacity:1;fill-rule:nonzero;stroke:none" d="m 0,0 c 1.944,-1.21 0.432,-4.432 -0.497,-5.889 -0.9,-1.411 -2.101,-2.603 -3.32,-3.739 -2.526,-2.351 -5.558,-4.437 -7.915,-6.996 -0.229,-0.086 -0.458,-0.172 -0.686,-0.26 1.244,3.32 2.578,6.574 4.26,9.713 C -6.864,-4.757 -3.706,2.306 0,0 m 4.686,-14.777 c 0.479,0.041 0.958,0.072 1.438,0.104 1.005,-0.783 1.996,-1.588 2.926,-2.46 0.27,-0.254 1.388,-1.068 1.43,-1.43 0.092,-0.811 -0.716,-0.674 -1.249,-0.648 -1.14,0.055 -2.233,0.595 -3.04,1.393 -0.883,0.873 -1.086,1.865 -1.475,2.986 -0.007,0.02 -0.021,0.035 -0.03,0.055 m 3.822,2.499 c 0.727,1.3 1.321,2.734 1.967,3.951 0.663,1.252 2.877,6.79 4.93,4.863 1.887,-1.77 -1.439,-4.843 -2.64,-6.046 -1.224,-1.224 -2.616,-2.35 -4.257,-2.768 m 28.718,-5.597 c -0.269,0.781 -0.622,1.615 -1.073,2.396 1.678,-1.201 3.03,-2.881 3.957,-4.766 0.85,-1.726 1.38,-3.582 1.739,-5.467 0.129,-0.679 0.24,-1.367 0.323,-2.052 0.021,-0.182 0.207,-0.884 0.099,-1.042 -0.713,-1.05 -2.145,1.167 -2.414,1.619 -1.672,2.811 -1.59,6.276 -2.631,9.312 m 3.2,4.586 c 0.685,0.527 1.303,1.171 1.843,1.891 1.039,1.387 1.72,2.978 2.431,4.547 0.597,1.318 1.699,4.447 3.536,2.767 1.719,-1.572 -0.183,-4.29 -1.4,-5.577 -1.056,-1.116 -2.342,-1.985 -3.728,-2.639 -0.86,-0.405 -1.76,-0.73 -2.682,-0.989 m 13.285,-16.124 c 0.878,-2.385 1.368,-4.905 1.351,-7.461 -0.01,-1.464 -1.165,-5.414 -3.35,-3.522 -1.398,1.208 -0.39,3.35 0.261,4.653 1.026,2.055 1.761,4.114 1.738,6.33 M -7.85,-3.982 c -2.608,-4.222 -4.859,-8.818 -6.269,-13.593 -6.366,-2.712 -12.162,-6.634 -16.81,-12.013 -0.413,-0.477 0.266,-1.174 0.7,-0.7 4.489,4.902 10.068,8.614 16.214,11.116 0.189,0.076 0.38,0.151 0.569,0.226 0.062,-0.098 0.157,-0.18 0.296,-0.225 2.567,-0.836 5.143,-1.728 7.491,-3.081 1.937,-1.115 4.882,-3.203 5.405,-5.582 0.506,-2.303 -2.891,-0.804 -3.879,-0.359 -1.286,0.577 -2.503,1.315 -3.612,2.185 -2.305,1.81 -3.604,4.087 -5.212,6.46 -0.401,0.594 -1.395,0.235 -1.187,-0.5 0.956,-3.364 4.074,-6.345 6.935,-8.177 1.749,-1.12 6.545,-3.935 8.286,-1.433 1.691,2.428 -2.469,6.16 -4.17,7.371 -2.643,1.884 -5.782,2.97 -8.876,3.903 4.748,1.731 9.72,2.86 14.739,3.421 0.261,0.029 0.523,0.05 0.785,0.076 -0.562,-3.264 3.401,-5.961 6.329,-5.67 1.39,0.138 2.763,1.011 1.89,2.498 -0.49,0.835 -1.461,1.539 -2.185,2.18 -0.516,0.458 -1.048,0.892 -1.595,1.308 1.21,0.05 2.421,0.079 3.631,0.073 1.47,-0.007 2.94,-0.056 4.407,-0.144 1.569,-0.092 3.245,-0.128 4.576,-1.014 -2.107,-1.477 -3.839,-3.491 -4.937,-6.109 -0.195,-0.466 0.552,-0.739 0.791,-0.334 1.313,2.22 3.159,4.029 5.307,5.359 0.839,-1.018 1.437,-2.281 2.035,-3.419 0.805,-1.533 1.541,-3.11 2.023,-4.777 0.85,-2.937 0.809,-6.184 -1.001,-8.768 -1.762,-2.515 -5.14,-3.317 -7.796,-1.669 -3.148,1.953 -2.912,5.547 -1.525,8.502 0.346,0.738 -0.522,1.479 -1.15,0.887 -2.52,-2.38 -2.22,-6.867 -0.129,-9.432 2.152,-2.642 6.117,-3.545 9.201,-2.098 2.876,1.351 4.506,4.362 4.916,7.411 0.519,3.865 -1.003,7.624 -2.776,10.975 -0.596,1.129 -1.215,2.316 -2.006,3.353 2.064,0.956 4.324,1.509 6.625,1.59 0.981,0.036 1.956,-0.006 2.921,-0.11 1.276,-1.027 2.112,-2.255 2.703,-3.971 0.662,-1.925 0.875,-3.959 1.36,-5.928 0.443,-1.802 1.097,-3.609 2.334,-5.026 0.828,-0.948 2.399,-2.11 3.617,-1.093 1.27,1.057 0.404,3.647 0.141,4.991 -0.448,2.271 -1.154,4.53 -2.317,6.544 -0.722,1.253 -1.623,2.378 -2.671,3.317 2.508,-0.854 4.905,-2.077 7.124,-3.506 1.197,-0.769 2.347,-1.601 3.481,-2.456 1.546,-1.733 2.868,-3.685 3.891,-5.782 -0.238,-0.075 -0.439,-0.274 -0.44,-0.565 -0.011,-2.772 -0.606,-4.958 -1.816,-7.433 -0.711,-1.455 -1.292,-3.004 -0.835,-4.628 0.828,-2.937 4.357,-3.186 5.961,-0.72 2.011,3.091 0.499,8.296 -0.728,11.42 -0.747,1.905 -1.715,3.676 -2.894,5.291 2.034,-1.569 4.094,-3.103 6.341,-4.377 4.186,-2.371 9.009,-3.98 13.867,-3.388 3.672,0.447 8.881,2.355 10.165,6.246 0.208,0.63 -0.617,1.328 -1.182,0.907 -1.047,-0.779 -1.89,-1.773 -2.964,-2.527 -1.081,-0.757 -2.275,-1.324 -3.531,-1.726 -2.74,-0.88 -5.639,-0.908 -8.433,-0.262 -5.29,1.225 -9.703,4.448 -13.962,7.657 -1.499,1.13 -3.011,2.234 -4.565,3.26 2.631,-0.851 5.349,-1.382 8.13,-1.187 4.255,0.296 7.662,2.291 10.26,5.626 0.862,1.107 1.814,2.627 0.641,3.885 -0.987,1.06 -2.726,0.966 -3.982,0.576 -1.586,-0.493 -2.904,-1.581 -3.957,-2.837 -1.079,-1.286 -2.427,-2.998 -2.744,-4.673 -0.136,-0.718 0.738,-1.378 1.309,-0.763 0.865,0.934 1.313,2.219 1.995,3.288 0.709,1.109 1.559,2.192 2.663,2.933 0.619,0.414 1.327,0.744 2.069,0.845 0.86,0.117 0.912,0.122 1.236,-0.787 0.337,-0.941 0.262,-0.862 -0.266,-1.558 -0.938,-1.239 -2.024,-2.382 -3.309,-3.264 -5.708,-3.914 -12.919,-1.286 -18.843,0.7 -0.562,0.277 -1.134,0.538 -1.714,0.783 1.251,0.336 2.466,0.812 3.62,1.453 2.784,1.546 6.164,4.757 5.559,8.28 -0.231,1.343 -1.241,2.551 -2.577,2.92 -1.549,0.429 -2.825,-0.53 -3.621,-1.78 -2.062,-3.237 -3.21,-8.369 -7.264,-9.463 -1.307,0.302 -2.658,0.492 -4.02,0.568 -0.162,0.057 -0.327,0.105 -0.499,0.143 -0.202,0.044 -0.377,-0.006 -0.511,-0.106 -3.315,0.043 -6.639,-0.616 -9.491,-2.083 -0.041,0.037 -0.079,0.078 -0.122,0.114 -1.358,1.155 -3.017,1.493 -4.752,1.638 -2.301,0.193 -4.627,0.243 -6.947,0.191 1.392,0.706 2.622,1.812 3.721,2.958 1.653,1.721 3.955,4.226 2.418,6.744 -1.403,2.297 -3.995,1.081 -5.276,-0.61 -1.185,-1.562 -2.027,-3.437 -2.978,-5.147 -0.732,-1.318 -1.72,-2.709 -2.295,-4.163 -4.852,-0.365 -9.706,-1.206 -14.366,-2.602 0.84,0.746 1.663,1.507 2.493,2.216 1.732,1.479 3.535,2.914 5.031,4.642 1.962,2.265 4.849,7.167 1.43,9.521 -3.736,2.572 -7.006,-2.281 -8.645,-4.933"/>
                </g>
              </g>
            </g>
          </g>
        </g>
      </g>
    </g>
    <g transform="matrix(-1, 0, 0, 1, 1199.787842, -58.220222)" style="">
      <g id="group-9" transform="matrix(1.333333, 0, 0, -1.333333, 0, 666.666687)">
        <g id="group-10">
          <g id="group-11">
            <g id="group-12">
              <path id="path-6" style="stroke: none; fill: url(&quot;#gradient-2&quot;);" d="m 565.625,418.599 v -4 H 702.229 V 277.994 h 4 v 140.605 z"/>
            </g>
          </g>
        </g>
      </g>
      <g id="group-13" transform="matrix(1.333333, 0, 0, -1.333333, 0, 666.666687)">
        <g clip-path="url(#clip-2)" id="group-14">
          <g transform="translate(677.1188,404.0236)" id="group-15">
            <path id="path-7" style="fill:#ffffff;fill-opacity:1;fill-rule:nonzero;stroke:none" d="M 0,0 C -0.394,0.075 -0.374,0.63 -0.022,0.745 3.072,1.758 6.456,1.831 9.63,2.688 9.655,2.778 9.705,2.862 9.789,2.921 12.005,4.489 9.836,6.752 7.925,6.842 6.709,6.898 5.525,6.375 4.448,5.88 2.904,5.171 1.396,4.381 -0.146,3.665 -2.169,2.725 -4.262,2.038 -6.365,2.65 -5.964,1.061 -4.121,-0.507 -3.093,-1.47 -1.726,-2.751 -0.101,-3.873 1.84,-3.961 5.424,-4.123 7.906,-1.303 9.851,1.323 6.797,0.413 3.108,-0.597 0,0"/>
          </g>
          <g transform="translate(695.358,390.7927)" id="group-16">
            <path id="path-8" style="fill:#ffffff;fill-opacity:1;fill-rule:nonzero;stroke:none" d="M 0,0 C 0.285,-1.91 0.878,-3.916 0.808,-5.852 0.787,-6.424 0.062,-6.508 -0.143,-6.003 -0.924,-4.088 -1.06,-1.754 -1.342,0.289 -1.614,2.263 -1.825,4.248 -1.92,6.239 -2.898,4.747 -3.935,3.267 -4.713,1.687 -5.891,-0.705 -5.767,-3.063 -4.811,-5.502 -3.196,-9.623 -0.154,-15.79 4.716,-16.435 3.379,-13.043 4.301,-9.411 4.554,-5.829 4.889,-1.076 3.732,4.977 -0.729,7.392 -0.715,7.002 -0.701,6.613 -0.679,6.223 -0.558,4.138 -0.309,2.064 0,0"/>
          </g>
          <g transform="translate(710.9293,354.3044)" id="group-17">
            <path id="path-9" style="fill:#ffffff;fill-opacity:1;fill-rule:nonzero;stroke:none" d="M 0,0 C 0.377,-0.272 -0.087,-0.897 -0.473,-0.659 -5.974,2.726 -11,6.834 -15.452,11.511 c 0.149,-1.891 0.407,-3.753 1.026,-5.584 0.953,-2.823 3.119,-4.652 5.679,-6.024 4.566,-2.448 9.544,-3.211 14.376,-4.775 -4.077,2.486 -4.279,7.254 -6.818,10.949 -1.618,2.353 -4.298,4.395 -6.671,5.947 -2.217,1.451 -4.638,2.19 -7.131,1.304 0.012,-0.013 0.022,-0.026 0.034,-0.039 C -10.479,8.313 -5.425,3.914 0,0"/>
          </g>
          <g transform="translate(680.3424,366.2858)" id="group-18">
            <path id="path-10" style="fill:#ffffff;fill-opacity:1;fill-rule:nonzero;stroke:none" d="m 0,0 c -1.59,-3.624 -4.026,-8.297 -7.386,-10.586 -0.377,-0.256 -0.888,0.227 -0.654,0.618 1.102,1.843 2.694,3.391 3.905,5.173 1.093,1.608 2.063,3.306 2.913,5.054 0.068,0.14 0.129,0.283 0.195,0.424 -4.49,0.279 -8.762,-4.591 -10.262,-8.328 -1.608,-4.005 -1.157,-8.462 0.897,-12.19 1.362,1.244 2.931,2.166 4.435,3.257 1.793,1.3 3.344,2.916 4.537,4.786 2.118,3.319 3.854,8.58 1.598,12.223 C 0.117,0.288 0.062,0.143 0,0"/>
          </g>
          <g transform="translate(667.0865,378.7141)" id="group-19">
            <path id="path-11" style="fill:#ffffff;fill-opacity:1;fill-rule:nonzero;stroke:none" d="m 0,0 c -0.496,-0.184 -0.692,0.505 -0.343,0.777 3.524,2.742 7.787,4.583 11.441,7.188 0.261,0.187 0.517,0.382 0.775,0.573 0.289,2.889 -2.982,3.928 -5.234,3.152 C 4.588,10.985 3.091,9.213 1.675,7.661 -0.845,4.901 -3.694,2.762 -7.088,1.266 -4.708,-2.232 0.275,-2.023 3.979,-0.857 7.324,0.196 11.777,3.306 12.108,7.208 8.463,4.495 4.258,1.577 0,0"/>
          </g>
          <g transform="translate(711.2506,342.3376)" id="group-20">
            <path id="path-12" style="fill:#ffffff;fill-opacity:1;fill-rule:nonzero;stroke:none" d="m 0,0 c -3.544,2.301 -7.245,3.869 -11.327,4.941 -2.612,0.687 -5.607,1.195 -8.202,2.3 0.053,-0.084 0.104,-0.169 0.157,-0.253 3.81,-1.214 7.416,-3.695 10.697,-5.85 3.869,-2.542 7.813,-4.997 11.646,-7.59 0.297,-0.201 0.072,-0.617 -0.259,-0.488 -4.181,1.632 -7.882,4.424 -11.627,6.849 -3.038,1.967 -6.167,3.581 -9.33,5.23 0.431,-0.73 0.864,-1.456 1.335,-2.15 1.48,-2.18 3.096,-4.272 4.846,-6.242 3.323,-3.744 7.125,-7.061 11.171,-10.001 0.337,-0.244 -0.078,-0.806 -0.422,-0.59 -4.414,2.754 -8.359,6.101 -11.821,9.988 -1.664,1.867 -3.218,3.834 -4.629,5.898 -0.158,0.231 -0.319,0.465 -0.481,0.701 1.999,-4.566 5.145,-8.493 8.611,-12.428 5.653,-6.419 11.4,-12.857 18.016,-18.308 0.224,1.929 0.338,3.915 -0.394,5.744 -0.739,1.847 -1.966,3.409 -3.463,4.695 -0.252,0.217 -0.01,0.665 0.309,0.575 0.797,-0.223 1.498,-0.74 2.108,-1.388 1.387,-0.988 2.674,-2.066 4.246,-2.82 1.74,-0.835 3.585,-1.383 5.466,-1.782 -1.111,2.854 -2.658,5.425 -4.468,7.883 -1.427,0.454 -2.684,1.12 -3.52,1.96 -0.193,0.194 -0.022,0.56 0.261,0.486 0.972,-0.252 1.894,-0.597 2.824,-0.917 0.012,-0.003 0.024,-0.007 0.036,-0.012 1.01,-0.347 2.029,-0.66 3.136,-0.786 1.895,-0.217 3.632,0.24 5.453,0.369 C 13.523,-9.417 6.902,-4.483 0,0"/>
          </g>
          <g transform="translate(726.1725,327.9821)" id="group-21">
            <path id="path-13" style="fill:#bc9728;fill-opacity:1;fill-rule:nonzero;stroke:none" d="M 0,0 C -1.106,0.126 -2.126,0.439 -3.136,0.786 -3.147,0.791 -3.16,0.795 -3.172,0.799 -4.102,1.118 -5.023,1.463 -5.996,1.716 -6.279,1.789 -6.45,1.424 -6.257,1.229 c 0.836,-0.84 2.093,-1.506 3.52,-1.959 1.81,-2.458 3.357,-5.03 4.468,-7.883 -1.88,0.398 -3.726,0.946 -5.466,1.782 -1.572,0.754 -2.859,1.831 -4.245,2.819 -0.611,0.649 -1.312,1.165 -2.109,1.388 -0.319,0.09 -0.56,-0.358 -0.308,-0.574 1.497,-1.286 2.723,-2.849 3.462,-4.695 0.732,-1.829 0.619,-3.815 0.394,-5.744 -6.616,5.45 -12.363,11.889 -18.016,18.308 -3.465,3.934 -6.612,7.861 -8.611,12.428 0.162,-0.236 0.323,-0.471 0.481,-0.702 1.412,-2.064 2.965,-4.03 4.629,-5.897 3.462,-3.888 7.407,-7.234 11.821,-9.989 0.344,-0.215 0.759,0.346 0.423,0.591 -4.047,2.939 -7.849,6.257 -11.172,10 -1.75,1.971 -3.366,4.062 -4.846,6.243 -0.471,0.693 -0.904,1.42 -1.335,2.149 3.163,-1.649 6.292,-3.263 9.33,-5.23 3.745,-2.424 7.446,-5.216 11.627,-6.848 0.331,-0.129 0.556,0.287 0.259,0.488 -3.833,2.593 -7.777,5.047 -11.646,7.589 -3.281,2.156 -6.886,4.637 -10.697,5.851 -0.053,0.084 -0.103,0.169 -0.157,0.252 2.596,-1.105 5.59,-1.613 8.202,-2.299 4.082,-1.072 7.783,-2.64 11.327,-4.942 C -8.02,9.873 -1.398,4.938 5.453,0.37 3.632,0.241 1.896,-0.217 0,0 m -47.25,26.512 c -1.193,-1.87 -2.744,-3.486 -4.537,-4.786 -1.504,-1.092 -3.073,-2.013 -4.435,-3.257 -2.054,3.728 -2.506,8.184 -0.897,12.19 1.5,3.737 5.772,8.607 10.262,8.328 -0.066,-0.141 -0.127,-0.284 -0.195,-0.424 -0.85,-1.749 -1.82,-3.446 -2.913,-5.055 -1.211,-1.781 -2.804,-3.33 -3.905,-5.173 -0.234,-0.39 0.277,-0.874 0.654,-0.617 3.36,2.289 5.796,6.962 7.386,10.586 0.062,0.143 0.117,0.288 0.178,0.431 2.256,-3.644 0.52,-8.904 -1.598,-12.223 m -7.857,23.363 c -3.704,-1.167 -8.687,-1.375 -11.067,2.123 3.394,1.496 6.243,3.635 8.763,6.395 1.416,1.552 2.913,3.324 4.964,4.029 2.252,0.776 5.523,-0.263 5.234,-3.152 -0.258,-0.191 -0.514,-0.386 -0.775,-0.573 -3.654,-2.605 -7.917,-4.447 -11.441,-7.188 -0.349,-0.272 -0.153,-0.961 0.343,-0.777 4.258,1.577 8.463,4.495 12.108,7.208 -0.331,-3.902 -4.784,-7.012 -8.129,-8.065 m 7.893,22.206 c -1.94,0.087 -3.565,1.21 -4.932,2.49 -1.029,0.964 -2.872,2.531 -3.273,4.12 2.104,-0.612 4.196,0.075 6.22,1.015 1.542,0.716 3.05,1.507 4.594,2.216 1.077,0.495 2.26,1.018 3.476,0.961 1.911,-0.089 4.08,-2.353 1.864,-3.92 -0.084,-0.06 -0.133,-0.144 -0.159,-0.234 -3.174,-0.856 -6.557,-0.929 -9.652,-1.942 -0.352,-0.116 -0.371,-0.67 0.022,-0.745 3.109,-0.598 6.797,0.412 9.851,1.322 -1.944,-2.626 -4.427,-5.446 -8.011,-5.283 m 20.953,-15.099 c -0.253,-3.582 -1.175,-7.215 0.162,-10.607 -4.87,0.646 -7.912,6.813 -9.526,10.934 -0.956,2.439 -1.08,4.796 0.098,7.189 0.778,1.58 1.814,3.059 2.793,4.552 0.094,-1.991 0.305,-3.976 0.578,-5.95 0.282,-2.044 0.418,-4.378 1.199,-6.292 0.205,-0.505 0.93,-0.421 0.95,0.15 0.07,1.937 -0.522,3.942 -0.807,5.853 -0.309,2.064 -0.558,4.138 -0.679,6.222 -0.023,0.39 -0.036,0.78 -0.05,1.17 4.461,-2.416 5.617,-8.469 5.282,-13.221 m 3.157,-18.635 c 2.374,-1.553 5.054,-3.595 6.671,-5.948 2.539,-3.695 2.742,-8.463 6.819,-10.948 -4.832,1.564 -9.81,2.326 -14.376,4.774 -2.56,1.373 -4.726,3.201 -5.679,6.024 -0.619,1.832 -0.877,3.693 -1.026,5.584 4.452,-4.677 9.478,-8.785 14.979,-12.17 0.386,-0.238 0.85,0.387 0.473,0.659 -5.425,3.914 -10.48,8.313 -14.957,13.289 -0.012,0.013 -0.023,0.026 -0.034,0.039 2.493,0.886 4.914,0.147 7.13,-1.303 M 6.694,0.461 C -0.135,5.7 -6.968,11.034 -14.197,15.724 c -3.232,2.096 -6.631,3.662 -10.338,4.707 -1.933,0.545 -3.891,0.984 -5.837,1.477 -1.071,0.272 -2.127,0.614 -3.185,0.946 0.445,-0.015 0.877,-0.018 1.268,-0.025 1.667,-0.032 3.302,0.186 4.92,0.571 0.409,0.098 0.31,0.791 -0.116,0.737 -1.532,-0.194 -3.073,-0.267 -4.616,-0.212 -0.526,0.018 -1.075,0.106 -1.628,0.2 0.015,0.227 -0.005,0.459 -0.076,0.692 -0.318,1.044 -1.39,1.769 -2.471,1.747 -0.237,-0.004 -0.464,-0.042 -0.683,-0.105 -2.639,4.232 -3.404,9.346 -4.138,14.307 -0.574,3.889 -0.923,7.721 -0.659,11.543 1.091,-1.991 2.571,-3.905 3.778,-5.606 1.854,-2.612 3.862,-5.131 6.013,-7.506 -0.586,-2.161 0.141,-4.639 0.733,-6.722 0.753,-2.65 2.282,-4.675 4.54,-6.25 4.934,-3.446 12.125,-5.538 18.101,-5.808 0.42,-0.019 0.404,0.557 0.068,0.677 -0.144,0.05 -0.289,0.092 -0.431,0.141 0.229,0.118 0.315,0.497 0.026,0.684 -2.988,1.934 -3.659,5.656 -4.962,8.719 -1.115,2.622 -2.879,4.516 -5.056,6.311 -3.218,2.652 -7.975,6.29 -12.246,3.794 -1.904,2.182 -3.712,4.443 -5.382,6.812 -1.696,2.404 -3.01,5.299 -4.853,7.6 0.189,1.208 0.43,2.417 0.775,3.627 1.635,5.731 4.535,11.059 7.584,16.148 0.205,0.342 0.42,0.68 0.63,1.021 -0.227,-1.569 -0.337,-3.155 -0.346,-4.749 -1.681,-2.232 -3.617,-4.73 -4.549,-7.377 -0.922,-2.618 -0.379,-5.254 0.708,-7.727 2.091,-4.761 5.562,-11.243 11.567,-11.059 0.497,0.016 0.763,0.557 0.531,0.975 -1.414,2.55 -1.108,5.415 -0.8,8.201 0.276,2.499 0.456,4.943 0.045,7.442 -0.574,3.495 -2.335,8.632 -6.282,9.477 -0.036,2.366 0.114,4.718 0.541,7.035 1.202,1.82 2.481,3.589 3.907,5.241 2.272,2.632 4.882,4.688 7.657,6.757 0.727,0.541 0.088,1.582 -0.727,1.196 -4.072,-1.93 -7.356,-5.367 -10.11,-9.106 -2.454,-0.885 -4.793,-2.057 -7.258,-2.939 0.33,0.541 0.46,1.205 0.343,1.938 -0.269,1.699 -1.906,2.686 -3.497,2.882 -5.211,0.64 -10.032,-6.307 -15.134,-3.769 -0.371,0.185 -0.965,0.006 -1.021,-0.466 -0.248,-2.071 1.133,-3.502 2.445,-4.945 1.603,-1.761 3.476,-3.498 5.861,-4.063 4.223,-1.001 9.317,2.429 10.568,6.447 0.041,0.135 0.008,0.262 -0.064,0.37 2.112,0.649 4.351,1.439 6.343,2.54 -0.877,-1.296 -1.7,-2.604 -2.474,-3.876 -1.986,-3.266 -3.899,-6.65 -5.492,-10.165 -2.003,-2.322 -4.269,-4.431 -6.693,-6.306 0.029,3.253 -3.832,4.666 -6.702,3.627 -2.332,-0.844 -3.938,-2.696 -5.575,-4.466 -2.486,-2.685 -5.314,-4.73 -8.723,-6.087 -0.436,-0.173 -0.616,-0.601 -0.398,-1.026 2.507,-4.869 8.798,-4.824 13.349,-3.281 3.815,1.294 9.527,5.519 8.687,10.224 1.769,1.392 3.403,2.881 4.875,4.524 -0.669,-1.716 -1.255,-3.462 -1.71,-5.246 -0.691,-2.708 -0.949,-5.404 -0.957,-8.1 -0.501,-3.373 -1.419,-6.681 -2.76,-9.817 -4.629,0.964 -9.635,-4.174 -11.495,-7.83 -2.497,-4.906 -2.043,-10.77 0.791,-15.422 0.232,-0.38 0.784,-0.443 1.09,-0.114 1.973,2.115 4.677,3.299 6.776,5.279 1.723,1.625 3.103,3.642 4.05,5.809 1.49,3.413 2.424,7.972 0.008,11.125 0.154,0.257 0.149,0.599 -0.119,0.783 0.791,2.061 1.384,4.175 1.797,6.332 0.19,-2.438 0.534,-4.882 0.927,-7.34 0.718,-4.5 1.584,-9.451 4.326,-13.142 -0.165,-0.178 -0.309,-0.38 -0.422,-0.606 -0.482,-0.966 -0.31,-2.209 0.449,-2.983 0.501,-0.512 1.167,-0.733 1.827,-0.715 -0.455,-2.562 -0.831,-5.139 -1.421,-7.682 -0.123,-0.534 0.672,-0.71 0.826,-0.19 0.557,1.883 1.083,3.848 1.446,5.833 1.614,-5.321 5.244,-10.156 8.702,-14.274 6.129,-7.3 12.74,-14.503 20.233,-20.42 0.329,-0.26 0.974,-0.201 1.036,0.314 0.307,2.526 0.639,5.167 -0.4,7.569 -0.034,0.078 -0.076,0.162 -0.112,0.242 2.601,-1.524 5.923,-2.313 8.463,-2.75 0.392,-0.067 0.821,0.287 0.669,0.71 -1.066,2.965 -2.524,5.736 -4.522,8.129 2.801,-0.587 5.925,-0.401 7.787,0.826 0.018,0.012 0.021,0.033 0.037,0.048 0.285,0.041 0.508,0.46 0.228,0.673"/>
          </g>
          <g transform="translate(658.402,431.4665)" id="group-22">
            <path id="path-14" style="fill:#ffffff;fill-opacity:1;fill-rule:nonzero;stroke:none" d="M 0,0 C -0.128,0.482 0.452,0.778 0.803,0.468 2.776,-1.283 4.075,-3.359 6.414,-4.763 6.993,-5.11 7.576,-5.399 8.165,-5.644 8.327,2.305 -0.132,4.189 -5.533,8.475 -5.672,5.116 -6.106,1.559 -5.638,-1.698 -4.806,-7.477 2.389,-10.564 6.771,-6.619 3.6,-5.256 0.78,-2.936 0,0"/>
          </g>
          <g transform="translate(624.0123,425.4885)" id="group-23">
            <path id="path-15" style="fill:#ffffff;fill-opacity:1;fill-rule:nonzero;stroke:none" d="M 0,0 C -0.251,0.445 0.307,0.796 0.662,0.511 5.147,-3.079 8.835,-6.588 14.18,-8.716 12.723,-3.86 9.797,0.118 5.255,2.72 2.258,4.437 -1.329,4.994 -3.952,7.213 -5.904,1.617 -5.946,-3.836 -0.599,-7.824 3.309,-10.737 8.38,-11.766 12.832,-9.973 7.442,-8.058 2.704,-4.785 0,0"/>
          </g>
          <g transform="translate(617.1002,398.2805)" id="group-24">
            <path id="path-16" style="fill:#ffffff;fill-opacity:1;fill-rule:nonzero;stroke:none" d="m 0,0 c -5.151,-2.263 -10.567,-4.521 -15.993,-5.735 -0.434,-0.098 -0.755,0.546 -0.317,0.749 4.998,2.321 10.427,4.04 15.69,5.827 -0.091,0.187 -0.172,0.38 -0.224,0.589 -0.051,0.205 -0.068,0.406 -0.073,0.606 -6.861,-0.786 -14.051,-0.892 -20.751,0.701 -0.395,0.094 -0.312,0.745 0.097,0.714 7.017,-0.536 13.748,-1.095 20.733,-0.642 0.052,0.199 0.126,0.389 0.219,0.569 -11.673,3.422 -23.264,2.838 -35.042,0.113 2.914,-0.455 5.828,-0.911 8.742,-1.367 0.815,-0.127 0.986,-1.478 0.236,-1.808 l -11.004,-4.837 c 3.626,-0.061 7.251,-0.122 10.876,-0.182 0.798,-0.013 1.417,-1.137 0.708,-1.708 -1.705,-1.372 -3.251,-2.823 -4.704,-4.405 5.703,0.413 11.178,1.584 16.63,3.434 4.125,1.399 11.636,3.018 14.414,7.163 C 0.153,-0.153 0.078,-0.075 0,0"/>
          </g>
          <g transform="translate(602.9235,390.8986)" id="group-25">
            <path id="path-17" style="fill:#bc9728;fill-opacity:1;fill-rule:nonzero;stroke:none" d="m 0,0 c -5.452,-1.85 -10.927,-3.021 -16.63,-3.434 1.453,1.582 2.999,3.033 4.704,4.405 0.709,0.571 0.09,1.695 -0.708,1.708 -3.625,0.06 -7.25,0.121 -10.876,0.182 l 11.004,4.837 c 0.75,0.329 0.579,1.68 -0.236,1.808 -2.914,0.456 -5.828,0.911 -8.742,1.367 C -9.706,13.598 1.885,14.182 13.558,10.76 13.465,10.58 13.391,10.39 13.339,10.191 6.354,9.738 -0.377,10.297 -7.395,10.833 -7.804,10.864 -7.887,10.213 -7.491,10.119 -0.791,8.525 6.398,8.631 13.26,9.417 13.265,9.218 13.282,9.017 13.333,8.812 13.385,8.603 13.466,8.41 13.557,8.223 8.294,6.436 2.865,4.717 -2.133,2.396 -2.571,2.192 -2.25,1.549 -1.816,1.646 3.609,2.861 9.025,5.119 14.177,7.382 14.255,7.307 14.33,7.229 14.414,7.163 11.636,3.018 4.125,1.399 0,0 m 20.49,26.766 c -5.347,3.988 -5.305,9.441 -3.353,15.037 2.623,-2.22 6.21,-2.776 9.207,-4.493 4.542,-2.602 7.468,-6.581 8.925,-11.436 -5.345,2.127 -9.033,5.637 -13.518,9.227 -0.355,0.285 -0.913,-0.066 -0.662,-0.511 2.704,-4.785 7.442,-8.058 12.832,-9.973 -4.452,-1.793 -9.524,-0.764 -13.431,2.149 M 49.841,38.87 c -0.469,3.256 -0.034,6.814 0.104,10.172 5.402,-4.285 13.861,-6.169 13.699,-14.118 -0.589,0.244 -1.172,0.534 -1.751,0.881 -2.339,1.404 -3.638,3.48 -5.612,5.231 -0.35,0.31 -0.93,0.014 -0.802,-0.468 0.78,-2.936 3.599,-5.256 6.77,-6.619 C 57.867,30.003 50.673,33.091 49.841,38.87 M 90.107,28.568 c -6.875,4.486 -13.836,6.075 -20.678,4.938 -0.052,0.038 -0.115,0.068 -0.199,0.079 -1.667,0.231 -3.232,0.503 -4.744,1.022 1.191,9.544 -9.329,10.866 -14.712,16.489 -0.46,0.481 -1.183,0.084 -1.229,-0.509 -0.311,-4.012 -0.528,-8.286 -0.191,-12.307 0.203,-2.422 1.142,-3.983 3.162,-5.392 3.65,-2.549 9.152,-3.369 11.965,0.588 0.915,-0.313 1.838,-0.553 2.737,-0.697 -3.434,-1.008 -6.829,-2.701 -10.159,-5.085 -1.628,-1.165 -3.205,-2.4 -4.769,-3.652 -4.922,-0.646 -9.948,-0.27 -14.683,1.321 -0.582,4.109 -2.834,7.751 -5.9,10.536 -1.721,1.562 -3.675,2.882 -5.77,3.889 -2.655,1.275 -5.523,1.894 -7.527,4.223 -0.479,0.557 -1.251,0.169 -1.476,-0.39 -2.736,-6.788 -2.914,-13.674 3.503,-18.416 4.004,-2.96 12.362,-5.436 16.304,-1.18 4.542,-1.328 9.421,-1.742 13.871,-1.328 -2.873,-2.32 -5.743,-4.642 -8.837,-6.662 -6.463,-4.22 -13.598,-6.138 -21.108,-6.241 -0.252,0.37 -0.514,0.733 -0.789,1.087 -0.212,0.642 -0.583,1.215 -1.153,1.57 -0.021,0.012 -0.043,0.019 -0.064,0.031 -0.233,0.328 -0.459,0.662 -0.659,1.015 -0.876,1.545 -1.582,3.178 -2.285,4.806 -0.147,0.339 -0.731,0.096 -0.6,-0.252 0.573,-1.535 1.194,-3.475 2.05,-5.243 -0.631,-0.053 -1.245,-0.321 -1.709,-0.783 -0.026,-0.026 -0.047,-0.058 -0.073,-0.086 -12.917,5.248 -27.943,3.257 -41.047,-0.338 -0.874,-0.24 -1.001,-1.744 0,-1.901 3.394,-0.533 6.79,-1.066 10.184,-1.598 -4.025,-1.768 -8.05,-3.534 -12.076,-5.301 -0.951,-0.417 -0.408,-1.837 0.501,-1.852 4.257,-0.074 8.514,-0.15 12.771,-0.224 -1.568,-1.415 -3.011,-2.92 -4.379,-4.581 -0.517,-0.627 -0.23,-1.749 0.712,-1.717 8.905,0.308 17.112,2.611 25.385,5.791 3.437,1.322 8.444,2.824 10.113,6.326 0.033,0.004 0.065,0.013 0.098,0.018 0.322,-0.005 0.641,0.035 0.935,0.167 C 17.55,6.393 17.515,6.057 17.457,5.718 17.207,4.242 16.646,2.867 16.33,1.413 16.221,0.911 16.857,0.651 17.144,1.069 c 1.216,1.774 1.821,4.371 1.804,6.779 7.81,-0.311 14.864,1.893 21.371,5.714 -4.3,-6.793 -4.105,-15.395 -5.203,-23.191 -0.053,-0.376 0.485,-0.553 0.588,-0.162 1.245,4.69 1.421,9.545 2.289,14.195 5.498,-2.337 3.044,-10.911 0.513,-14.368 -1.835,-2.506 -4.427,-4.284 -7.09,-5.836 0.627,2.96 0.804,5.926 0.423,8.97 -0.61,4.883 -1.546,10.232 4.844,11.374 0.335,0.06 0.261,0.63 -0.081,0.599 -2.826,-0.255 -5.264,-1.826 -6.231,-4.617 -0.614,-1.776 -0.176,-3.41 0.11,-5.19 0.67,-4.171 0.573,-7.871 -0.333,-12.035 -0.089,-0.415 0.36,-0.844 0.759,-0.584 4.96,3.222 9.445,6.219 10.944,12.265 1.027,4.142 0.752,8.887 -3.616,10.598 0.688,3.172 1.779,6.232 3.84,9.059 2.197,1.407 4.337,2.983 6.419,4.712 1.515,1.257 3.018,2.563 4.545,3.845 0.419,0.086 0.834,0.177 1.24,0.278 0.472,0.118 0.459,0.649 0.177,0.898 3.336,2.719 6.84,5.219 10.884,6.753 8.434,3.202 16.62,0.596 24.069,-3.75 0.775,-0.453 1.44,0.709 0.698,1.193"/>
          </g>
        </g>
      </g>
    </g>
  </g>
</svg>